<svg xmlns="http://www.w3.org/2000/svg" xmlns:xlink="http://www.w3.org/1999/xlink" width="500" zoomAndPan="magnify" viewBox="0 0 375 374.999991" height="500" preserveAspectRatio="xMidYMid meet" version="1.0"><defs><clipPath id="8f96e99141"><path d="M 0 20 L 375 20 L 375 298 L 0 298 Z M 0 20 " clip-rule="nonzero"/></clipPath><clipPath id="26a2e126aa"><path d="M 45.976562 21.648438 L 73.746094 67.109375 L 74.15625 67.519531 C 112.210938 91.382812 148.828125 115.039062 186.367188 139.722656 L 187.5 138.386719 L 127.84375 74.101562 L 127.742188 74 L 78.886719 35.738281 L 78.683594 35.636719 L 47.210938 20.308594 Z M 14.914062 211.511719 L 27.769531 212.4375 L 12.652344 192.792969 L 10.902344 193.515625 L 12.445312 206.472656 C 12.445312 206.78125 12.34375 207.191406 11.929688 207.296875 L 0 212.953125 L 0.515625 214.597656 L 14.503906 211.617188 C 14.605469 211.617188 14.707031 211.617188 14.8125 211.617188 Z M 31.472656 226.222656 L 13.679688 231.054688 L 12.960938 231.570312 L 6.582031 241.132812 L 7.714844 242.675781 L 21.289062 238.664062 L 21.804688 238.355469 L 32.5 227.867188 L 31.574219 226.324219 Z M 59.65625 213.46875 L 35.175781 209.25 L 34.351562 210.894531 L 44.226562 219.328125 C 44.535156 219.535156 44.636719 219.945312 44.535156 220.359375 L 39.597656 232.597656 L 41.140625 233.421875 L 49.472656 221.695312 C 49.472656 221.59375 49.574219 221.59375 49.679688 221.488281 L 59.757812 213.46875 Z M 82.179688 197.320312 L 26.742188 191.148438 L 26.332031 192.792969 L 62.535156 205.035156 L 63.253906 205.035156 L 82.28125 199.066406 L 82.078125 197.320312 Z M 90.304688 193.101562 L 107.582031 195.261719 C 113.242188 189.296875 117.457031 185.183594 123.527344 179.628906 L 122.703125 177.984375 L 103.777344 180.761719 L 103.367188 180.863281 L 93.699219 186.109375 L 93.183594 186.621094 L 90.304688 193 Z M 62.738281 228.792969 L 85.265625 222.105469 L 85.777344 221.796875 L 103.46875 204.417969 L 102.542969 202.875 L 73.023438 210.894531 L 72.304688 211.410156 L 61.609375 227.351562 L 62.738281 228.894531 Z M 30.546875 252.757812 L 40.007812 253.992188 C 42.785156 251.007812 44.945312 248.953125 47.929688 246.175781 L 47.105469 244.527344 L 37.851562 245.867188 L 37.4375 245.96875 L 32.605469 248.539062 L 32.089844 249.054688 L 30.445312 252.652344 Z M 49.78125 264.171875 L 20.671875 260.882812 L 20.261719 262.527344 L 39.289062 269.007812 L 40.007812 269.007812 L 49.882812 265.921875 L 49.679688 264.171875 Z M 50.601562 254.402344 L 71.277344 248.539062 L 71.894531 248.128906 L 78.683594 239.488281 L 77.550781 238.152344 L 49.984375 252.859375 Z M 95.242188 264.171875 L 92.566406 265.613281 C 92.464844 265.613281 92.363281 265.714844 92.257812 265.714844 L 70.042969 267.980469 L 69.324219 268.390625 L 44.226562 295.542969 L 45.253906 297.085938 L 87.527344 280.9375 L 87.9375 280.734375 L 117.457031 254.710938 L 116.429688 253.269531 L 96.269531 263.761719 C 96.0625 263.863281 95.859375 263.863281 95.652344 263.863281 C 95.550781 264.070312 95.445312 264.277344 95.242188 264.378906 Z M 95.445312 262.117188 L 129.386719 240.621094 L 128.667969 238.972656 L 101.722656 246.175781 L 101.515625 246.175781 L 83 247.203125 L 70.453125 264.277344 L 94.316406 262.628906 L 94.519531 262.527344 C 94.726562 262.425781 94.933594 262.425781 95.136719 262.527344 C 95.242188 262.320312 95.34375 262.21875 95.445312 262.117188 Z M 188.21875 238.769531 L 134.121094 252.34375 L 134.324219 253.992188 L 172.484375 252.859375 L 173.203125 252.652344 L 188.941406 240.414062 L 188.117188 238.769531 Z M 184.105469 196.289062 L 155.203125 192.898438 L 155 192.898438 L 136.792969 186.519531 L 91.230469 229.410156 L 92.054688 231.054688 L 134.738281 221.078125 L 134.941406 220.976562 L 184.414062 198.140625 Z M 158.394531 184.976562 L 185.132812 189.195312 L 185.75 189.195312 L 200.664062 184.359375 L 200.5625 182.507812 L 145.226562 173.355469 L 144.507812 175 L 157.980469 184.667969 L 158.496094 184.875 Z M 195.316406 226.324219 L 196.449219 199.375 L 145.023438 223.957031 L 145.226562 225.808594 L 170.53125 231.878906 L 171.042969 231.878906 Z M 219.488281 210.074219 L 226.171875 186.210938 L 224.628906 185.285156 L 222.984375 186.929688 C 222.882812 187.035156 222.777344 187.035156 222.777344 187.136719 C 222.777344 187.238281 222.675781 187.34375 222.574219 187.34375 L 203.132812 206.988281 L 202.824219 207.707031 L 201.488281 226.941406 L 203.238281 227.660156 L 219.382812 210.585938 L 219.691406 210.074219 Z M 256.824219 176.441406 L 237.484375 191.25 L 237.074219 191.765625 L 225.554688 219.433594 C 225.453125 219.535156 225.453125 219.636719 225.351562 219.742188 L 190.277344 248.335938 L 191.203125 249.875 L 228.742188 234.347656 L 229.15625 234.039062 L 260.628906 199.789062 Z M 260.320312 152.167969 L 254.664062 128.203125 L 252.8125 128.097656 L 232.136719 184.359375 L 233.578125 185.492188 L 255.28125 170.269531 L 255.691406 169.652344 L 260.320312 152.679688 L 260.320312 152.0625 Z M 307.324219 123.78125 L 375.308594 98.785156 L 374.898438 97.140625 L 301.976562 111.230469 Z M 313.496094 128.203125 L 277.804688 151.859375 L 276.671875 189.089844 L 278.421875 189.503906 L 291.691406 156.796875 C 291.691406 156.691406 291.792969 156.589844 291.792969 156.589844 L 314.625 129.640625 L 313.496094 128.304688 Z M 275.027344 121.824219 L 270.808594 128.714844 C 270.707031 128.921875 270.605469 129.023438 270.398438 129.023438 L 266.285156 130.566406 C 265.976562 130.671875 265.566406 130.671875 265.359375 130.363281 C 265.050781 130.054688 265.050781 129.539062 265.359375 129.128906 C 265.769531 128.714844 266.183594 128.097656 266.492188 127.484375 C 266.695312 126.867188 266.902344 126.25 266.902344 125.527344 C 266.902344 124.808594 266.800781 124.191406 266.492188 123.574219 C 266.285156 122.957031 265.875 122.441406 265.359375 121.929688 C 264.949219 121.515625 264.332031 121.105469 263.714844 120.796875 C 263.097656 120.589844 262.480469 120.386719 261.757812 120.386719 C 261.039062 120.386719 260.421875 120.488281 259.804688 120.796875 C 259.1875 121.003906 258.675781 121.414062 258.160156 121.929688 C 257.75 122.339844 257.335938 122.957031 257.027344 123.574219 C 256.824219 124.191406 256.617188 124.808594 256.617188 125.527344 C 256.617188 126.25 256.71875 126.867188 257.027344 127.484375 C 257.234375 128.097656 257.644531 128.613281 258.160156 129.128906 C 258.570312 129.539062 259.085938 129.949219 259.597656 130.15625 C 260.113281 130.363281 260.730469 130.566406 261.347656 130.566406 C 261.65625 130.566406 261.964844 130.773438 262.066406 131.082031 C 262.273438 131.492188 261.964844 132.007812 261.554688 132.214844 L 260.730469 132.523438 L 265.976562 150.210938 C 274.617188 142.292969 282.742188 134.269531 291.175781 126.042969 L 294.261719 122.957031 L 293.539062 121.207031 L 274.925781 121.621094 Z M 241.085938 103.003906 L 268.136719 110.613281 L 268.652344 110.613281 L 295.289062 106.089844 L 295.390625 104.238281 L 262.582031 96.214844 L 262.066406 96.214844 L 241.292969 101.152344 L 241.292969 103.003906 Z M 213.417969 137.972656 L 252.296875 114.113281 L 233.371094 108.351562 L 220 120.078125 L 219.691406 120.488281 L 211.980469 136.636719 L 213.316406 137.871094 Z M 216.8125 148.257812 C 216.503906 148.464844 216.09375 148.464844 215.785156 148.257812 L 186.675781 126.144531 L 185.441406 127.378906 L 209.820312 156.691406 C 209.820312 156.796875 209.921875 156.796875 209.921875 156.898438 L 222.058594 184.875 L 247.875 128.921875 L 246.433594 127.6875 L 216.710938 148.15625 Z M 122.292969 58.984375 C 149.648438 83.257812 175.980469 106.5 206.011719 128.613281 L 207.351562 127.378906 L 196.035156 110.410156 L 195.726562 110.101562 L 102.234375 39.132812 L 101.207031 40.367188 C 108.199219 46.539062 115.296875 52.8125 122.292969 58.984375 Z M 205.292969 175.101562 L 120.132812 135.402344 L 118.898438 136.738281 L 136.382812 164.613281 L 204.777344 176.644531 L 205.292969 175 Z M 121.261719 103.519531 L 86.292969 87.371094 L 85.160156 88.808594 L 111.285156 124.191406 L 111.800781 124.601562 L 204.058594 166.050781 L 204.882812 164.613281 L 121.46875 103.722656 L 121.261719 103.621094 Z M 121.261719 103.519531 " clip-rule="evenodd"/></clipPath><linearGradient x1="38.578302" gradientTransform="matrix(10.285245, 0, 0, 10.285245, 0.0000045, 20.31027)" y1="4.17441" x2="-1.274776" gradientUnits="userSpaceOnUse" y2="24.397879" id="f8c039758c"><stop stop-opacity="1" stop-color="rgb(94.898987%, 93.699646%, 7.099915%)" offset="0"/><stop stop-opacity="1" stop-color="rgb(94.898987%, 93.699646%, 7.099915%)" offset="0.125"/><stop stop-opacity="1" stop-color="rgb(94.898987%, 93.699646%, 7.099915%)" offset="0.1875"/><stop stop-opacity="1" stop-color="rgb(94.898987%, 93.699646%, 7.099915%)" offset="0.21875"/><stop stop-opacity="1" stop-color="rgb(94.898987%, 93.699646%, 7.099915%)" offset="0.234375"/><stop stop-opacity="1" stop-color="rgb(94.776917%, 93.659973%, 7.154846%)" offset="0.242188"/><stop stop-opacity="1" stop-color="rgb(94.061279%, 93.42804%, 7.48291%)" offset="0.246094"/><stop stop-opacity="1" stop-color="rgb(93.466187%, 93.237305%, 7.756042%)" offset="0.25"/><stop stop-opacity="1" stop-color="rgb(92.871094%, 93.045044%, 8.029175%)" offset="0.253906"/><stop stop-opacity="1" stop-color="rgb(92.276001%, 92.852783%, 8.302307%)" offset="0.257812"/><stop stop-opacity="1" stop-color="rgb(91.680908%, 92.660522%, 8.573914%)" offset="0.261719"/><stop stop-opacity="1" stop-color="rgb(91.085815%, 92.469788%, 8.847046%)" offset="0.265625"/><stop stop-opacity="1" stop-color="rgb(90.490723%, 92.277527%, 9.118652%)" offset="0.269531"/><stop stop-opacity="1" stop-color="rgb(89.89563%, 92.085266%, 9.391785%)" offset="0.273437"/><stop stop-opacity="1" stop-color="rgb(89.300537%, 91.893005%, 9.664917%)" offset="0.277344"/><stop stop-opacity="1" stop-color="rgb(88.705444%, 91.702271%, 9.938049%)" offset="0.28125"/><stop stop-opacity="1" stop-color="rgb(88.110352%, 91.51001%, 10.209656%)" offset="0.285156"/><stop stop-opacity="1" stop-color="rgb(87.516785%, 91.319275%, 10.482788%)" offset="0.289062"/><stop stop-opacity="1" stop-color="rgb(86.921692%, 91.127014%, 10.75592%)" offset="0.292969"/><stop stop-opacity="1" stop-color="rgb(86.326599%, 90.934753%, 11.029053%)" offset="0.296875"/><stop stop-opacity="1" stop-color="rgb(85.731506%, 90.742493%, 11.300659%)" offset="0.300781"/><stop stop-opacity="1" stop-color="rgb(85.136414%, 90.551758%, 11.573792%)" offset="0.304687"/><stop stop-opacity="1" stop-color="rgb(84.541321%, 90.359497%, 11.846924%)" offset="0.308594"/><stop stop-opacity="1" stop-color="rgb(83.946228%, 90.167236%, 12.120056%)" offset="0.3125"/><stop stop-opacity="1" stop-color="rgb(83.351135%, 89.974976%, 12.391663%)" offset="0.316406"/><stop stop-opacity="1" stop-color="rgb(82.756042%, 89.784241%, 12.664795%)" offset="0.320312"/><stop stop-opacity="1" stop-color="rgb(82.16095%, 89.59198%, 12.937927%)" offset="0.324219"/><stop stop-opacity="1" stop-color="rgb(81.565857%, 89.399719%, 13.21106%)" offset="0.328125"/><stop stop-opacity="1" stop-color="rgb(80.970764%, 89.207458%, 13.482666%)" offset="0.332031"/><stop stop-opacity="1" stop-color="rgb(80.375671%, 89.016724%, 13.755798%)" offset="0.335938"/><stop stop-opacity="1" stop-color="rgb(79.780579%, 88.824463%, 14.028931%)" offset="0.339844"/><stop stop-opacity="1" stop-color="rgb(79.187012%, 88.632202%, 14.302063%)" offset="0.34375"/><stop stop-opacity="1" stop-color="rgb(78.591919%, 88.439941%, 14.573669%)" offset="0.347656"/><stop stop-opacity="1" stop-color="rgb(77.996826%, 88.249207%, 14.846802%)" offset="0.351562"/><stop stop-opacity="1" stop-color="rgb(77.401733%, 88.056946%, 15.119934%)" offset="0.355469"/><stop stop-opacity="1" stop-color="rgb(76.806641%, 87.864685%, 15.393066%)" offset="0.359375"/><stop stop-opacity="1" stop-color="rgb(76.211548%, 87.672424%, 15.664673%)" offset="0.363281"/><stop stop-opacity="1" stop-color="rgb(75.616455%, 87.481689%, 15.937805%)" offset="0.367188"/><stop stop-opacity="1" stop-color="rgb(75.021362%, 87.289429%, 16.210938%)" offset="0.371094"/><stop stop-opacity="1" stop-color="rgb(74.42627%, 87.097168%, 16.48407%)" offset="0.375"/><stop stop-opacity="1" stop-color="rgb(73.831177%, 86.904907%, 16.755676%)" offset="0.378906"/><stop stop-opacity="1" stop-color="rgb(73.236084%, 86.714172%, 17.028809%)" offset="0.382812"/><stop stop-opacity="1" stop-color="rgb(72.640991%, 86.521912%, 17.301941%)" offset="0.386719"/><stop stop-opacity="1" stop-color="rgb(72.045898%, 86.331177%, 17.575073%)" offset="0.390625"/><stop stop-opacity="1" stop-color="rgb(71.450806%, 86.138916%, 17.84668%)" offset="0.394531"/><stop stop-opacity="1" stop-color="rgb(70.855713%, 85.946655%, 18.119812%)" offset="0.398437"/><stop stop-opacity="1" stop-color="rgb(70.26062%, 85.754395%, 18.392944%)" offset="0.402344"/><stop stop-opacity="1" stop-color="rgb(69.667053%, 85.56366%, 18.666077%)" offset="0.40625"/><stop stop-opacity="1" stop-color="rgb(69.07196%, 85.371399%, 18.937683%)" offset="0.410156"/><stop stop-opacity="1" stop-color="rgb(68.476868%, 85.179138%, 19.210815%)" offset="0.414062"/><stop stop-opacity="1" stop-color="rgb(67.881775%, 84.986877%, 19.482422%)" offset="0.417969"/><stop stop-opacity="1" stop-color="rgb(67.286682%, 84.796143%, 19.755554%)" offset="0.421875"/><stop stop-opacity="1" stop-color="rgb(66.691589%, 84.603882%, 20.028687%)" offset="0.425781"/><stop stop-opacity="1" stop-color="rgb(66.096497%, 84.411621%, 20.301819%)" offset="0.429687"/><stop stop-opacity="1" stop-color="rgb(65.501404%, 84.21936%, 20.573425%)" offset="0.433594"/><stop stop-opacity="1" stop-color="rgb(64.906311%, 84.028625%, 20.846558%)" offset="0.4375"/><stop stop-opacity="1" stop-color="rgb(64.311218%, 83.836365%, 21.11969%)" offset="0.441406"/><stop stop-opacity="1" stop-color="rgb(63.716125%, 83.644104%, 21.392822%)" offset="0.445312"/><stop stop-opacity="1" stop-color="rgb(63.121033%, 83.451843%, 21.664429%)" offset="0.449219"/><stop stop-opacity="1" stop-color="rgb(62.52594%, 83.261108%, 21.937561%)" offset="0.453125"/><stop stop-opacity="1" stop-color="rgb(61.930847%, 83.068848%, 22.210693%)" offset="0.457031"/><stop stop-opacity="1" stop-color="rgb(61.33728%, 82.876587%, 22.483826%)" offset="0.460937"/><stop stop-opacity="1" stop-color="rgb(60.742188%, 82.684326%, 22.755432%)" offset="0.464844"/><stop stop-opacity="1" stop-color="rgb(60.147095%, 82.493591%, 23.028564%)" offset="0.46875"/><stop stop-opacity="1" stop-color="rgb(59.552002%, 82.301331%, 23.301697%)" offset="0.472656"/><stop stop-opacity="1" stop-color="rgb(58.956909%, 82.10907%, 23.574829%)" offset="0.476562"/><stop stop-opacity="1" stop-color="rgb(58.361816%, 81.916809%, 23.846436%)" offset="0.480469"/><stop stop-opacity="1" stop-color="rgb(57.766724%, 81.726074%, 24.119568%)" offset="0.484375"/><stop stop-opacity="1" stop-color="rgb(57.171631%, 81.533813%, 24.3927%)" offset="0.488281"/><stop stop-opacity="1" stop-color="rgb(56.576538%, 81.341553%, 24.665833%)" offset="0.492188"/><stop stop-opacity="1" stop-color="rgb(55.981445%, 81.149292%, 24.937439%)" offset="0.496094"/><stop stop-opacity="1" stop-color="rgb(55.386353%, 80.958557%, 25.210571%)" offset="0.5"/><stop stop-opacity="1" stop-color="rgb(54.79126%, 80.766296%, 25.483704%)" offset="0.503906"/><stop stop-opacity="1" stop-color="rgb(54.196167%, 80.575562%, 25.756836%)" offset="0.507812"/><stop stop-opacity="1" stop-color="rgb(53.601074%, 80.383301%, 26.028442%)" offset="0.511719"/><stop stop-opacity="1" stop-color="rgb(53.005981%, 80.19104%, 26.301575%)" offset="0.515625"/><stop stop-opacity="1" stop-color="rgb(52.410889%, 79.998779%, 26.574707%)" offset="0.519531"/><stop stop-opacity="1" stop-color="rgb(51.817322%, 79.808044%, 26.847839%)" offset="0.523438"/><stop stop-opacity="1" stop-color="rgb(51.222229%, 79.615784%, 27.119446%)" offset="0.527344"/><stop stop-opacity="1" stop-color="rgb(50.627136%, 79.423523%, 27.392578%)" offset="0.53125"/><stop stop-opacity="1" stop-color="rgb(50.032043%, 79.231262%, 27.66571%)" offset="0.535156"/><stop stop-opacity="1" stop-color="rgb(49.436951%, 79.040527%, 27.938843%)" offset="0.539062"/><stop stop-opacity="1" stop-color="rgb(48.841858%, 78.848267%, 28.210449%)" offset="0.542969"/><stop stop-opacity="1" stop-color="rgb(48.246765%, 78.656006%, 28.483582%)" offset="0.546875"/><stop stop-opacity="1" stop-color="rgb(47.651672%, 78.463745%, 28.756714%)" offset="0.550781"/><stop stop-opacity="1" stop-color="rgb(47.05658%, 78.27301%, 29.029846%)" offset="0.554688"/><stop stop-opacity="1" stop-color="rgb(46.461487%, 78.08075%, 29.301453%)" offset="0.558594"/><stop stop-opacity="1" stop-color="rgb(45.866394%, 77.888489%, 29.574585%)" offset="0.5625"/><stop stop-opacity="1" stop-color="rgb(45.271301%, 77.696228%, 29.846191%)" offset="0.566406"/><stop stop-opacity="1" stop-color="rgb(44.676208%, 77.505493%, 30.119324%)" offset="0.570312"/><stop stop-opacity="1" stop-color="rgb(44.081116%, 77.313232%, 30.392456%)" offset="0.574219"/><stop stop-opacity="1" stop-color="rgb(43.486023%, 77.120972%, 30.665588%)" offset="0.578125"/><stop stop-opacity="1" stop-color="rgb(42.89093%, 76.928711%, 30.937195%)" offset="0.582031"/><stop stop-opacity="1" stop-color="rgb(42.297363%, 76.737976%, 31.210327%)" offset="0.585937"/><stop stop-opacity="1" stop-color="rgb(41.702271%, 76.545715%, 31.483459%)" offset="0.589844"/><stop stop-opacity="1" stop-color="rgb(41.107178%, 76.353455%, 31.756592%)" offset="0.59375"/><stop stop-opacity="1" stop-color="rgb(40.512085%, 76.161194%, 32.028198%)" offset="0.597656"/><stop stop-opacity="1" stop-color="rgb(39.916992%, 75.970459%, 32.301331%)" offset="0.601562"/><stop stop-opacity="1" stop-color="rgb(39.321899%, 75.778198%, 32.574463%)" offset="0.605469"/><stop stop-opacity="1" stop-color="rgb(38.726807%, 75.587463%, 32.847595%)" offset="0.609375"/><stop stop-opacity="1" stop-color="rgb(38.131714%, 75.395203%, 33.119202%)" offset="0.613281"/><stop stop-opacity="1" stop-color="rgb(37.536621%, 75.202942%, 33.392334%)" offset="0.617188"/><stop stop-opacity="1" stop-color="rgb(36.941528%, 75.010681%, 33.665466%)" offset="0.621094"/><stop stop-opacity="1" stop-color="rgb(36.346436%, 74.819946%, 33.938599%)" offset="0.625"/><stop stop-opacity="1" stop-color="rgb(35.751343%, 74.627686%, 34.210205%)" offset="0.628906"/><stop stop-opacity="1" stop-color="rgb(35.15625%, 74.435425%, 34.483337%)" offset="0.632812"/><stop stop-opacity="1" stop-color="rgb(34.561157%, 74.243164%, 34.75647%)" offset="0.636719"/><stop stop-opacity="1" stop-color="rgb(33.96759%, 74.052429%, 35.029602%)" offset="0.640625"/><stop stop-opacity="1" stop-color="rgb(33.372498%, 73.860168%, 35.301208%)" offset="0.644531"/><stop stop-opacity="1" stop-color="rgb(32.777405%, 73.667908%, 35.574341%)" offset="0.648437"/><stop stop-opacity="1" stop-color="rgb(32.182312%, 73.475647%, 35.847473%)" offset="0.652344"/><stop stop-opacity="1" stop-color="rgb(31.587219%, 73.284912%, 36.120605%)" offset="0.65625"/><stop stop-opacity="1" stop-color="rgb(30.992126%, 73.092651%, 36.392212%)" offset="0.660156"/><stop stop-opacity="1" stop-color="rgb(30.397034%, 72.900391%, 36.665344%)" offset="0.664062"/><stop stop-opacity="1" stop-color="rgb(29.801941%, 72.70813%, 36.938477%)" offset="0.667969"/><stop stop-opacity="1" stop-color="rgb(29.206848%, 72.517395%, 37.211609%)" offset="0.671875"/><stop stop-opacity="1" stop-color="rgb(28.611755%, 72.325134%, 37.483215%)" offset="0.675781"/><stop stop-opacity="1" stop-color="rgb(28.016663%, 72.132874%, 37.756348%)" offset="0.679687"/><stop stop-opacity="1" stop-color="rgb(27.42157%, 71.940613%, 38.02948%)" offset="0.683594"/><stop stop-opacity="1" stop-color="rgb(26.826477%, 71.749878%, 38.302612%)" offset="0.6875"/><stop stop-opacity="1" stop-color="rgb(26.231384%, 71.557617%, 38.574219%)" offset="0.691406"/><stop stop-opacity="1" stop-color="rgb(25.636292%, 71.365356%, 38.847351%)" offset="0.695312"/><stop stop-opacity="1" stop-color="rgb(25.041199%, 71.173096%, 39.120483%)" offset="0.699219"/><stop stop-opacity="1" stop-color="rgb(24.447632%, 70.982361%, 39.393616%)" offset="0.703125"/><stop stop-opacity="1" stop-color="rgb(23.852539%, 70.7901%, 39.665222%)" offset="0.707031"/><stop stop-opacity="1" stop-color="rgb(23.257446%, 70.597839%, 39.938354%)" offset="0.710937"/><stop stop-opacity="1" stop-color="rgb(22.662354%, 70.405579%, 40.211487%)" offset="0.714844"/><stop stop-opacity="1" stop-color="rgb(22.067261%, 70.214844%, 40.484619%)" offset="0.71875"/><stop stop-opacity="1" stop-color="rgb(21.472168%, 70.022583%, 40.756226%)" offset="0.722656"/><stop stop-opacity="1" stop-color="rgb(20.877075%, 69.831848%, 41.029358%)" offset="0.726562"/><stop stop-opacity="1" stop-color="rgb(20.281982%, 69.639587%, 41.300964%)" offset="0.730469"/><stop stop-opacity="1" stop-color="rgb(19.68689%, 69.447327%, 41.574097%)" offset="0.734375"/><stop stop-opacity="1" stop-color="rgb(19.091797%, 69.255066%, 41.847229%)" offset="0.738281"/><stop stop-opacity="1" stop-color="rgb(18.496704%, 69.064331%, 42.120361%)" offset="0.742188"/><stop stop-opacity="1" stop-color="rgb(17.901611%, 68.87207%, 42.391968%)" offset="0.746094"/><stop stop-opacity="1" stop-color="rgb(17.306519%, 68.67981%, 42.6651%)" offset="0.75"/><stop stop-opacity="1" stop-color="rgb(16.711426%, 68.487549%, 42.938232%)" offset="0.753906"/><stop stop-opacity="1" stop-color="rgb(16.117859%, 68.296814%, 43.211365%)" offset="0.757812"/><stop stop-opacity="1" stop-color="rgb(15.522766%, 68.104553%, 43.482971%)" offset="0.761719"/><stop stop-opacity="1" stop-color="rgb(14.927673%, 67.912292%, 43.756104%)" offset="0.765625"/><stop stop-opacity="1" stop-color="rgb(14.332581%, 67.720032%, 44.029236%)" offset="0.769531"/><stop stop-opacity="1" stop-color="rgb(13.737488%, 67.529297%, 44.302368%)" offset="0.773438"/><stop stop-opacity="1" stop-color="rgb(13.142395%, 67.337036%, 44.573975%)" offset="0.777344"/><stop stop-opacity="1" stop-color="rgb(12.547302%, 67.144775%, 44.847107%)" offset="0.78125"/><stop stop-opacity="1" stop-color="rgb(11.952209%, 66.952515%, 45.120239%)" offset="0.785156"/><stop stop-opacity="1" stop-color="rgb(11.357117%, 66.76178%, 45.393372%)" offset="0.789063"/><stop stop-opacity="1" stop-color="rgb(10.762024%, 66.569519%, 45.664978%)" offset="0.792969"/><stop stop-opacity="1" stop-color="rgb(10.166931%, 66.377258%, 45.93811%)" offset="0.796875"/><stop stop-opacity="1" stop-color="rgb(9.571838%, 66.184998%, 46.211243%)" offset="0.800781"/><stop stop-opacity="1" stop-color="rgb(8.976746%, 65.994263%, 46.484375%)" offset="0.804688"/><stop stop-opacity="1" stop-color="rgb(8.381653%, 65.802002%, 46.755981%)" offset="0.808594"/><stop stop-opacity="1" stop-color="rgb(7.78656%, 65.609741%, 47.029114%)" offset="0.8125"/><stop stop-opacity="1" stop-color="rgb(7.191467%, 65.41748%, 47.302246%)" offset="0.816406"/><stop stop-opacity="1" stop-color="rgb(6.5979%, 65.226746%, 47.575378%)" offset="0.820312"/><stop stop-opacity="1" stop-color="rgb(6.002808%, 65.034485%, 47.846985%)" offset="0.824219"/><stop stop-opacity="1" stop-color="rgb(5.407715%, 64.84375%, 48.120117%)" offset="0.828125"/><stop stop-opacity="1" stop-color="rgb(4.812622%, 64.651489%, 48.39325%)" offset="0.832031"/><stop stop-opacity="1" stop-color="rgb(4.217529%, 64.459229%, 48.666382%)" offset="0.835937"/><stop stop-opacity="1" stop-color="rgb(3.622437%, 64.266968%, 48.937988%)" offset="0.839844"/><stop stop-opacity="1" stop-color="rgb(3.027344%, 64.076233%, 49.211121%)" offset="0.84375"/><stop stop-opacity="1" stop-color="rgb(2.432251%, 63.883972%, 49.484253%)" offset="0.847656"/><stop stop-opacity="1" stop-color="rgb(1.837158%, 63.691711%, 49.757385%)" offset="0.851562"/><stop stop-opacity="1" stop-color="rgb(1.242065%, 63.499451%, 50.028992%)" offset="0.855469"/><stop stop-opacity="1" stop-color="rgb(0.646973%, 63.308716%, 50.302124%)" offset="0.859375"/><stop stop-opacity="1" stop-color="rgb(0.323486%, 63.20343%, 50.450134%)" offset="0.863281"/><stop stop-opacity="1" stop-color="rgb(0%, 63.09967%, 50.59967%)" offset="0.867187"/><stop stop-opacity="1" stop-color="rgb(0%, 63.09967%, 50.59967%)" offset="0.875"/><stop stop-opacity="1" stop-color="rgb(0%, 63.09967%, 50.59967%)" offset="1"/></linearGradient></defs><g clip-path="url(#8f96e99141)"><g clip-path="url(#26a2e126aa)"><path fill="url(#f8c039758c)" d="M 0 20.308594 L 0 297.085938 L 375 297.085938 L 375 20.308594 Z M 0 20.308594 " fill-rule="nonzero"/></g></g></svg>