<svg xmlns="http://www.w3.org/2000/svg" xmlns:xlink="http://www.w3.org/1999/xlink" width="2000" zoomAndPan="magnify" viewBox="0 0 1500 449.999984" height="600" preserveAspectRatio="xMidYMid meet" version="1.0"><defs><g/><clipPath id="6e689a04a9"><path d="M 1029 334 L 1256 334 L 1256 450 L 1029 450 Z M 1029 334 " clip-rule="nonzero"/></clipPath><clipPath id="4ac0495408"><path d="M 1029.988281 379.808594 L 1209.40625 334.203125 L 1255.011719 513.621094 L 1075.59375 559.226562 Z M 1029.988281 379.808594 " clip-rule="nonzero"/></clipPath><clipPath id="5f53d25d5e"><path d="M 1029.988281 379.808594 L 1209.40625 334.203125 L 1255.011719 513.621094 L 1075.59375 559.226562 Z M 1029.988281 379.808594 " clip-rule="nonzero"/></clipPath><clipPath id="6387a8f105"><path d="M 282.777344 358.371094 L 507.777344 358.371094 L 507.777344 450 L 282.777344 450 Z M 282.777344 358.371094 " clip-rule="nonzero"/></clipPath><clipPath id="984ad4932d"><path d="M 636.789062 0 L 861.789062 0 L 861.789062 89.375 L 636.789062 89.375 Z M 636.789062 0 " clip-rule="nonzero"/></clipPath><clipPath id="8697564037"><path d="M 1402.398438 317.089844 L 1500 317.089844 L 1500 450 L 1402.398438 450 Z M 1402.398438 317.089844 " clip-rule="nonzero"/></clipPath><clipPath id="b241685fb5"><path d="M 1156 0 L 1357 0 L 1357 153 L 1156 153 Z M 1156 0 " clip-rule="nonzero"/></clipPath><clipPath id="8e3344e6c6"><path d="M 1219.398438 -92.480469 L 1419.617188 -19.808594 L 1357.179688 152.210938 L 1156.960938 79.539062 Z M 1219.398438 -92.480469 " clip-rule="nonzero"/></clipPath><clipPath id="75a82c152b"><path d="M 1219.648438 -93.167969 L 1419.867188 -20.496094 L 1356.917969 152.933594 L 1156.699219 80.261719 Z M 1219.648438 -93.167969 " clip-rule="nonzero"/></clipPath><clipPath id="8928d68ab8"><path d="M 0 288 L 128 288 L 128 450 L 0 450 Z M 0 288 " clip-rule="nonzero"/></clipPath><clipPath id="28a2d21e7e"><path d="M -9.664062 252.527344 L 190.554688 325.199219 L 128.117188 497.21875 L -72.101562 424.546875 Z M -9.664062 252.527344 " clip-rule="nonzero"/></clipPath><clipPath id="a5a2112188"><path d="M -9.414062 251.835938 L 190.804688 324.507812 L 127.855469 497.9375 L -72.363281 425.265625 Z M -9.414062 251.835938 " clip-rule="nonzero"/></clipPath><clipPath id="60a5190851"><path d="M 203 0 L 434 0 L 434 167 L 203 167 Z M 203 0 " clip-rule="nonzero"/></clipPath><clipPath id="735a690126"><path d="M 433.09375 -55.894531 L 277.109375 166.140625 L 202.941406 114.039062 L 358.925781 -108 Z M 433.09375 -55.894531 " clip-rule="nonzero"/></clipPath><clipPath id="c3b0ba55e2"><path d="M 433.09375 -55.894531 L 277.175781 166.046875 L 203.195312 114.074219 L 359.113281 -107.867188 Z M 433.09375 -55.894531 " clip-rule="nonzero"/></clipPath></defs><rect x="-150" width="1800" fill="#ffffff" y="-44.999998" height="539.99998" fill-opacity="1"/><rect x="-150" width="1800" fill="#ffffff" y="-44.999998" height="539.99998" fill-opacity="1"/><rect x="-150" width="1800" fill="#f4f4f4" y="-44.999998" height="539.99998" fill-opacity="1"/><g clip-path="url(#6e689a04a9)"><g clip-path="url(#4ac0495408)"><g clip-path="url(#5f53d25d5e)"><path fill="#004651" d="M 1029.988281 379.808594 L 1209.40625 334.203125 L 1255.011719 513.621094 L 1075.59375 559.226562 Z M 1029.988281 379.808594 " fill-opacity="1" fill-rule="nonzero"/></g></g></g><g clip-path="url(#6387a8f105)"><path fill="#00a181" d="M 507.777344 470.871094 C 507.777344 533 457.410156 583.367188 395.277344 583.367188 C 333.148438 583.367188 282.777344 533 282.777344 470.871094 C 282.777344 408.738281 333.148438 358.371094 395.277344 358.371094 C 457.410156 358.371094 507.777344 408.738281 507.777344 470.871094 Z M 507.777344 470.871094 " fill-opacity="1" fill-rule="nonzero"/></g><g clip-path="url(#984ad4932d)"><path fill="#004651" d="M 861.789062 -23.125 C 861.789062 39.003906 811.417969 89.375 749.289062 89.375 C 687.15625 89.375 636.789062 39.003906 636.789062 -23.125 C 636.789062 -85.257812 687.15625 -135.625 749.289062 -135.625 C 811.417969 -135.625 861.789062 -85.257812 861.789062 -23.125 Z M 861.789062 -23.125 " fill-opacity="1" fill-rule="nonzero"/></g><g clip-path="url(#8697564037)"><path fill="#00a181" d="M 1627.398438 429.589844 C 1627.398438 491.71875 1577.03125 542.089844 1514.898438 542.089844 C 1452.765625 542.089844 1402.398438 491.71875 1402.398438 429.589844 C 1402.398438 367.457031 1452.765625 317.089844 1514.898438 317.089844 C 1577.03125 317.089844 1627.398438 367.457031 1627.398438 429.589844 Z M 1627.398438 429.589844 " fill-opacity="1" fill-rule="nonzero"/></g><g clip-path="url(#b241685fb5)"><g clip-path="url(#8e3344e6c6)"><g clip-path="url(#75a82c152b)"><path fill="#004651" d="M 1256.820312 116.574219 L 1156.707031 80.238281 L 1238.230469 11.714844 L 1319.75 -56.808594 L 1338.339844 48.046875 L 1356.929688 152.910156 Z M 1256.820312 116.574219 " fill-opacity="1" fill-rule="nonzero"/></g></g></g><g clip-path="url(#8928d68ab8)"><g clip-path="url(#28a2d21e7e)"><g clip-path="url(#a5a2112188)"><path fill="#004651" d="M 27.753906 461.578125 L -72.355469 425.242188 L 9.167969 356.71875 L 90.6875 288.195312 L 109.273438 393.054688 L 127.863281 497.914062 Z M 27.753906 461.578125 " fill-opacity="1" fill-rule="nonzero"/></g></g></g><g clip-path="url(#60a5190851)"><g clip-path="url(#735a690126)"><g clip-path="url(#c3b0ba55e2)"><path fill="#004651" d="M 433.09375 -55.894531 L 277.109375 166.140625 L 202.941406 114.039062 L 358.925781 -108 Z M 433.09375 -55.894531 " fill-opacity="1" fill-rule="nonzero"/></g></g></g><g fill="#000000" fill-opacity="1"><g transform="translate(577.061115, 277.614838)"><g><path d="M 47.859375 0 L 47.859375 -32.21875 L 22.21875 -32.21875 L 22.21875 0 L 8.453125 0 L 8.453125 -72.0625 L 22.21875 -72.0625 L 22.21875 -43.171875 L 47.859375 -43.171875 L 47.859375 -72.0625 L 61.734375 -72.0625 L 61.734375 0 Z M 47.859375 0 "/></g></g></g><g fill="#000000" fill-opacity="1"><g transform="translate(647.132825, 277.614838)"><g><path d="M 21.375 -55.171875 L 21.375 0 L 8.03125 0 L 8.03125 -55.171875 Z M 14.59375 -83.109375 C 17.09375 -83.109375 19.125 -82.328125 20.6875 -80.765625 C 22.257812 -79.203125 23.046875 -77.273438 23.046875 -74.984375 C 23.046875 -72.679688 22.257812 -70.765625 20.6875 -69.234375 C 19.125 -67.710938 17.09375 -66.953125 14.59375 -66.953125 C 12.164062 -66.953125 10.164062 -67.710938 8.59375 -69.234375 C 7.03125 -70.765625 6.25 -72.679688 6.25 -74.984375 C 6.25 -77.273438 7.03125 -79.203125 8.59375 -80.765625 C 10.164062 -82.328125 12.164062 -83.109375 14.59375 -83.109375 Z M 14.59375 -83.109375 "/></g></g></g><g fill="#000000" fill-opacity="1"><g transform="translate(676.537913, 277.614838)"><g><path d="M 25.4375 -56.734375 C 32.882812 -56.734375 39.421875 -54.539062 45.046875 -50.15625 L 39.828125 -42.34375 C 35.109375 -45.332031 30.488281 -46.828125 25.96875 -46.828125 C 23.320312 -46.828125 21.269531 -46.320312 19.8125 -45.3125 C 18.351562 -44.300781 17.625 -42.960938 17.625 -41.296875 C 17.625 -40.046875 17.9375 -39.003906 18.5625 -38.171875 C 19.1875 -37.335938 20.316406 -36.550781 21.953125 -35.8125 C 23.585938 -35.082031 26.003906 -34.269531 29.203125 -33.375 C 35.179688 -31.769531 39.613281 -29.644531 42.5 -27 C 45.382812 -24.363281 46.828125 -20.679688 46.828125 -15.953125 C 46.828125 -10.460938 44.597656 -6.171875 40.140625 -3.078125 C 35.691406 0.015625 30.164062 1.5625 23.5625 1.5625 C 19.050781 1.5625 14.929688 0.867188 11.203125 -0.515625 C 7.484375 -1.910156 4.269531 -3.820312 1.5625 -6.25 L 8.234375 -13.765625 C 13.035156 -10.148438 18.039062 -8.34375 23.25 -8.34375 C 26.238281 -8.34375 28.617188 -8.929688 30.390625 -10.109375 C 32.171875 -11.296875 33.0625 -12.929688 33.0625 -15.015625 C 33.0625 -16.617188 32.726562 -17.890625 32.0625 -18.828125 C 31.40625 -19.765625 30.222656 -20.597656 28.515625 -21.328125 C 26.816406 -22.054688 24.160156 -22.941406 20.546875 -23.984375 C 14.910156 -25.515625 10.769531 -27.648438 8.125 -30.390625 C 5.488281 -33.140625 4.171875 -36.566406 4.171875 -40.671875 C 4.171875 -43.734375 5.054688 -46.476562 6.828125 -48.90625 C 8.597656 -51.34375 11.097656 -53.253906 14.328125 -54.640625 C 17.566406 -56.035156 21.269531 -56.734375 25.4375 -56.734375 Z M 25.4375 -56.734375 "/></g></g></g><g fill="#000000" fill-opacity="1"><g transform="translate(726.172034, 277.614838)"><g><path d="M 39.625 -2.609375 C 37.675781 -1.210938 35.503906 -0.171875 33.109375 0.515625 C 30.710938 1.210938 28.257812 1.5625 25.75 1.5625 C 20.332031 1.488281 16.210938 -0.0546875 13.390625 -3.078125 C 10.578125 -6.097656 9.171875 -10.5625 9.171875 -16.46875 L 9.171875 -45.578125 L 0.515625 -45.578125 L 0.515625 -55.171875 L 9.171875 -55.171875 L 9.171875 -67.359375 L 22.53125 -68.9375 L 22.53125 -55.171875 L 35.34375 -55.171875 L 34 -45.578125 L 22.53125 -45.578125 L 22.53125 -16.796875 C 22.53125 -14.078125 23 -12.125 23.9375 -10.9375 C 24.875 -9.757812 26.347656 -9.171875 28.359375 -9.171875 C 30.378906 -9.171875 32.570312 -9.832031 34.9375 -11.15625 Z M 39.625 -2.609375 "/></g></g></g><g fill="#000000" fill-opacity="1"><g transform="translate(765.274547, 277.614838)"><g><path d="M 30.546875 -56.734375 C 38.679688 -56.734375 45.023438 -54.140625 49.578125 -48.953125 C 54.140625 -43.773438 56.421875 -36.671875 56.421875 -27.640625 C 56.421875 -21.867188 55.375 -16.773438 53.28125 -12.359375 C 51.195312 -7.941406 48.207031 -4.515625 44.3125 -2.078125 C 40.425781 0.347656 35.804688 1.5625 30.453125 1.5625 C 22.316406 1.5625 15.953125 -1.023438 11.359375 -6.203125 C 6.773438 -11.378906 4.484375 -18.523438 4.484375 -27.640625 C 4.484375 -33.410156 5.523438 -38.484375 7.609375 -42.859375 C 9.691406 -47.234375 12.695312 -50.640625 16.625 -53.078125 C 20.5625 -55.515625 25.203125 -56.734375 30.546875 -56.734375 Z M 30.546875 -46.609375 C 22.554688 -46.609375 18.5625 -40.285156 18.5625 -27.640625 C 18.5625 -21.097656 19.550781 -16.28125 21.53125 -13.1875 C 23.507812 -10.09375 26.484375 -8.546875 30.453125 -8.546875 C 34.410156 -8.546875 37.378906 -10.109375 39.359375 -13.234375 C 41.347656 -16.367188 42.34375 -21.171875 42.34375 -27.640625 C 42.34375 -34.097656 41.347656 -38.875 39.359375 -41.96875 C 37.378906 -45.0625 34.441406 -46.609375 30.546875 -46.609375 Z M 30.546875 -46.609375 "/></g></g></g><g fill="#000000" fill-opacity="1"><g transform="translate(826.17018, 277.614838)"><g><path d="M 35.25 -56.625 C 37.257812 -56.625 39.101562 -56.378906 40.78125 -55.890625 L 38.484375 -42.96875 C 36.816406 -43.382812 35.179688 -43.59375 33.578125 -43.59375 C 30.304688 -43.59375 27.734375 -42.425781 25.859375 -40.09375 C 23.984375 -37.769531 22.488281 -34.207031 21.375 -29.40625 L 21.375 0 L 8.03125 0 L 8.03125 -55.171875 L 19.609375 -55.171875 L 20.859375 -44.3125 C 22.179688 -48.28125 24.09375 -51.320312 26.59375 -53.4375 C 29.09375 -55.5625 31.976562 -56.625 35.25 -56.625 Z M 35.25 -56.625 "/></g></g></g><g fill="#000000" fill-opacity="1"><g transform="translate(867.253871, 277.614838)"><g><path d="M 34.71875 0.203125 C 32.5 7.015625 29.128906 12.316406 24.609375 16.109375 C 20.085938 19.898438 13.898438 22.109375 6.046875 22.734375 L 4.6875 13.03125 C 8.300781 12.476562 11.203125 11.695312 13.390625 10.6875 C 15.585938 9.675781 17.34375 8.335938 18.65625 6.671875 C 19.976562 5.003906 21.195312 2.78125 22.3125 0 L 17.734375 0 L 0.203125 -55.171875 L 14.390625 -55.171875 L 26.390625 -8.859375 L 38.890625 -55.171875 L 52.65625 -55.171875 Z M 34.71875 0.203125 "/></g></g></g></svg>