<svg xmlns="http://www.w3.org/2000/svg" xmlns:xlink="http://www.w3.org/1999/xlink" width="500" zoomAndPan="magnify" viewBox="0 0 375 374.999991" height="500" preserveAspectRatio="xMidYMid meet" version="1.0"><defs><g/><clipPath id="bcedeaa4e5"><path d="M 91.957031 162 L 160.207031 162 L 160.207031 212.925781 L 91.957031 212.925781 Z M 91.957031 162 " clip-rule="nonzero"/></clipPath><clipPath id="17c67b6d84"><path d="M 100.324219 162.574219 L 105.378906 170.816406 L 105.453125 170.894531 C 112.378906 175.21875 119.042969 179.511719 125.875 183.984375 L 126.082031 183.742188 L 115.226562 172.085938 L 115.207031 172.066406 L 106.316406 165.128906 L 106.277344 165.109375 L 100.550781 162.332031 Z M 94.671875 197.003906 L 97.011719 197.171875 L 94.257812 193.609375 L 93.941406 193.742188 L 94.222656 196.089844 C 94.222656 196.148438 94.203125 196.222656 94.128906 196.242188 L 91.957031 197.265625 L 92.050781 197.566406 L 94.597656 197.023438 C 94.617188 197.023438 94.632812 197.023438 94.652344 197.023438 Z M 97.683594 199.671875 L 94.445312 200.550781 L 94.316406 200.640625 L 93.15625 202.375 L 93.359375 202.65625 L 95.832031 201.929688 L 95.925781 201.875 L 97.871094 199.96875 L 97.703125 199.691406 Z M 102.8125 197.359375 L 98.359375 196.59375 L 98.210938 196.894531 L 100.007812 198.421875 C 100.0625 198.460938 100.082031 198.535156 100.0625 198.609375 L 99.164062 200.828125 L 99.445312 200.976562 L 100.960938 198.851562 C 100.960938 198.832031 100.980469 198.832031 101 198.8125 L 102.832031 197.359375 Z M 106.914062 194.429688 L 96.824219 193.3125 L 96.75 193.609375 L 103.339844 195.828125 L 103.46875 195.828125 L 106.933594 194.75 L 106.894531 194.429688 Z M 108.390625 193.667969 L 111.539062 194.058594 C 112.566406 192.976562 113.335938 192.230469 114.4375 191.222656 L 114.289062 190.925781 L 110.84375 191.429688 L 110.769531 191.445312 L 109.011719 192.398438 L 108.917969 192.492188 L 108.390625 193.648438 Z M 103.375 200.136719 L 107.476562 198.925781 L 107.570312 198.871094 L 110.789062 195.71875 L 110.621094 195.4375 L 105.246094 196.894531 L 105.117188 196.988281 L 103.167969 199.878906 L 103.375 200.15625 Z M 97.515625 204.484375 L 99.238281 204.707031 C 99.746094 204.167969 100.136719 203.792969 100.679688 203.289062 L 100.53125 202.992188 L 98.847656 203.234375 L 98.769531 203.253906 L 97.890625 203.71875 L 97.796875 203.8125 L 97.496094 204.464844 Z M 101.015625 206.554688 L 95.71875 205.957031 L 95.644531 206.257812 L 99.109375 207.429688 L 99.238281 207.429688 L 101.035156 206.871094 L 101 206.554688 Z M 101.167969 204.78125 L 104.929688 203.71875 L 105.042969 203.644531 L 106.277344 202.078125 L 106.070312 201.835938 L 101.054688 204.503906 Z M 109.292969 206.554688 L 108.804688 206.816406 C 108.785156 206.816406 108.765625 206.835938 108.75 206.835938 L 104.703125 207.246094 L 104.574219 207.320312 L 100.007812 212.242188 L 100.195312 212.523438 L 107.886719 209.59375 L 107.960938 209.558594 L 113.335938 204.839844 L 113.148438 204.578125 L 109.476562 206.480469 C 109.441406 206.5 109.402344 206.5 109.367188 206.5 C 109.347656 206.535156 109.328125 206.574219 109.292969 206.59375 Z M 109.328125 206.183594 L 115.503906 202.285156 L 115.375 201.984375 L 110.46875 203.289062 L 110.433594 203.289062 L 107.0625 203.476562 L 104.78125 206.574219 L 109.121094 206.273438 L 109.160156 206.257812 C 109.199219 206.238281 109.234375 206.238281 109.273438 206.257812 C 109.292969 206.21875 109.308594 206.199219 109.328125 206.183594 Z M 126.214844 201.949219 L 116.367188 204.410156 L 116.40625 204.707031 L 123.347656 204.503906 L 123.480469 204.464844 L 126.34375 202.246094 L 126.195312 201.949219 Z M 125.464844 194.246094 L 120.203125 193.628906 L 120.167969 193.628906 L 116.855469 192.472656 L 108.5625 200.25 L 108.710938 200.550781 L 116.480469 198.738281 L 116.515625 198.722656 L 125.519531 194.582031 Z M 120.785156 192.191406 L 125.652344 192.957031 L 125.765625 192.957031 L 128.476562 192.082031 L 128.460938 191.746094 L 118.386719 190.085938 L 118.257812 190.382812 L 120.710938 192.136719 L 120.804688 192.175781 Z M 127.503906 199.691406 L 127.710938 194.804688 L 118.351562 199.261719 L 118.386719 199.597656 L 122.992188 200.699219 L 123.085938 200.699219 Z M 131.902344 196.742188 L 133.121094 192.417969 L 132.839844 192.25 L 132.539062 192.546875 C 132.523438 192.566406 132.503906 192.566406 132.503906 192.585938 C 132.503906 192.601562 132.484375 192.621094 132.464844 192.621094 L 128.925781 196.183594 L 128.871094 196.316406 L 128.628906 199.804688 L 128.945312 199.933594 L 131.886719 196.835938 L 131.941406 196.742188 Z M 138.699219 190.644531 L 135.179688 193.332031 L 135.105469 193.425781 L 133.007812 198.441406 C 132.988281 198.460938 132.988281 198.480469 132.972656 198.496094 L 126.585938 203.683594 L 126.757812 203.960938 L 133.589844 201.144531 L 133.664062 201.089844 L 139.390625 194.878906 Z M 139.335938 186.242188 L 138.304688 181.898438 L 137.96875 181.878906 L 134.207031 192.082031 L 134.46875 192.285156 L 138.417969 189.527344 L 138.492188 189.414062 L 139.335938 186.335938 L 139.335938 186.222656 Z M 147.890625 181.09375 L 160.261719 176.5625 L 160.1875 176.265625 L 146.917969 178.820312 Z M 149.011719 181.898438 L 142.515625 186.1875 L 142.3125 192.9375 L 142.628906 193.011719 L 145.042969 187.082031 C 145.042969 187.0625 145.0625 187.046875 145.0625 187.046875 L 149.21875 182.160156 L 149.011719 181.914062 Z M 142.011719 180.742188 L 141.246094 181.992188 C 141.226562 182.027344 141.207031 182.046875 141.167969 182.046875 L 140.421875 182.328125 C 140.363281 182.34375 140.289062 182.34375 140.253906 182.289062 C 140.195312 182.234375 140.195312 182.140625 140.253906 182.066406 C 140.328125 181.992188 140.402344 181.878906 140.457031 181.765625 C 140.496094 181.65625 140.535156 181.542969 140.535156 181.414062 C 140.535156 181.28125 140.515625 181.167969 140.457031 181.058594 C 140.421875 180.945312 140.347656 180.851562 140.253906 180.757812 C 140.175781 180.683594 140.066406 180.609375 139.953125 180.554688 C 139.839844 180.515625 139.726562 180.480469 139.597656 180.480469 C 139.464844 180.480469 139.355469 180.5 139.242188 180.554688 C 139.128906 180.589844 139.035156 180.667969 138.941406 180.757812 C 138.867188 180.835938 138.792969 180.945312 138.734375 181.058594 C 138.699219 181.167969 138.660156 181.28125 138.660156 181.414062 C 138.660156 181.542969 138.679688 181.65625 138.734375 181.765625 C 138.773438 181.878906 138.847656 181.972656 138.941406 182.066406 C 139.015625 182.140625 139.109375 182.214844 139.203125 182.25 C 139.296875 182.289062 139.410156 182.328125 139.523438 182.328125 C 139.578125 182.328125 139.636719 182.363281 139.652344 182.417969 C 139.691406 182.492188 139.636719 182.585938 139.558594 182.625 L 139.410156 182.679688 L 140.363281 185.890625 C 141.9375 184.453125 143.417969 182.996094 144.949219 181.503906 L 145.511719 180.945312 L 145.382812 180.628906 L 141.992188 180.703125 Z M 135.835938 177.328125 L 140.757812 178.707031 L 140.851562 178.707031 L 145.699219 177.886719 L 145.71875 177.550781 L 139.746094 176.097656 L 139.652344 176.097656 L 135.871094 176.992188 L 135.871094 177.328125 Z M 130.800781 183.667969 L 137.875 179.34375 L 134.429688 178.296875 L 131.996094 180.421875 L 131.941406 180.5 L 130.539062 183.425781 L 130.78125 183.652344 Z M 131.417969 185.535156 C 131.359375 185.570312 131.285156 185.570312 131.230469 185.535156 L 125.933594 181.523438 L 125.707031 181.746094 L 130.144531 187.0625 C 130.144531 187.082031 130.164062 187.082031 130.164062 187.101562 L 132.371094 192.175781 L 137.070312 182.027344 L 136.808594 181.804688 L 131.398438 185.515625 Z M 114.214844 169.34375 C 119.195312 173.746094 123.984375 177.960938 129.453125 181.972656 L 129.695312 181.746094 L 127.636719 178.671875 L 127.578125 178.613281 L 110.5625 165.746094 L 110.375 165.96875 C 111.648438 167.085938 112.941406 168.226562 114.214844 169.34375 Z M 129.320312 190.402344 L 113.820312 183.203125 L 113.597656 183.445312 L 116.777344 188.5 L 129.226562 190.683594 L 129.320312 190.382812 Z M 114.027344 177.421875 L 107.664062 174.492188 L 107.457031 174.753906 L 112.210938 181.167969 L 112.304688 181.246094 L 129.097656 188.761719 L 129.246094 188.5 L 114.0625 177.457031 L 114.027344 177.441406 Z M 114.027344 177.421875 " clip-rule="evenodd"/></clipPath><linearGradient x1="38.578305" gradientTransform="matrix(1.871914, 0, 0, 1.865164, 91.957132, 162.331666)" y1="4.174409" x2="-1.274775" gradientUnits="userSpaceOnUse" y2="24.397879" id="e12fe21c6a"><stop stop-opacity="1" stop-color="rgb(94.898987%, 93.699646%, 7.099915%)" offset="0"/><stop stop-opacity="1" stop-color="rgb(94.898987%, 93.699646%, 7.099915%)" offset="0.125"/><stop stop-opacity="1" stop-color="rgb(94.898987%, 93.699646%, 7.099915%)" offset="0.1875"/><stop stop-opacity="1" stop-color="rgb(94.898987%, 93.699646%, 7.099915%)" offset="0.21875"/><stop stop-opacity="1" stop-color="rgb(94.898987%, 93.699646%, 7.099915%)" offset="0.234375"/><stop stop-opacity="1" stop-color="rgb(94.776917%, 93.659973%, 7.154846%)" offset="0.242187"/><stop stop-opacity="1" stop-color="rgb(94.061279%, 93.42804%, 7.48291%)" offset="0.246094"/><stop stop-opacity="1" stop-color="rgb(93.466187%, 93.237305%, 7.756042%)" offset="0.25"/><stop stop-opacity="1" stop-color="rgb(92.871094%, 93.045044%, 8.029175%)" offset="0.253906"/><stop stop-opacity="1" stop-color="rgb(92.276001%, 92.852783%, 8.302307%)" offset="0.257812"/><stop stop-opacity="1" stop-color="rgb(91.680908%, 92.660522%, 8.573914%)" offset="0.261719"/><stop stop-opacity="1" stop-color="rgb(91.085815%, 92.469788%, 8.847046%)" offset="0.265625"/><stop stop-opacity="1" stop-color="rgb(90.490723%, 92.277527%, 9.118652%)" offset="0.269531"/><stop stop-opacity="1" stop-color="rgb(89.89563%, 92.085266%, 9.391785%)" offset="0.273438"/><stop stop-opacity="1" stop-color="rgb(89.300537%, 91.893005%, 9.664917%)" offset="0.277344"/><stop stop-opacity="1" stop-color="rgb(88.705444%, 91.702271%, 9.938049%)" offset="0.28125"/><stop stop-opacity="1" stop-color="rgb(88.110352%, 91.51001%, 10.209656%)" offset="0.285156"/><stop stop-opacity="1" stop-color="rgb(87.516785%, 91.319275%, 10.482788%)" offset="0.289062"/><stop stop-opacity="1" stop-color="rgb(86.921692%, 91.127014%, 10.75592%)" offset="0.292969"/><stop stop-opacity="1" stop-color="rgb(86.326599%, 90.934753%, 11.029053%)" offset="0.296875"/><stop stop-opacity="1" stop-color="rgb(85.731506%, 90.742493%, 11.300659%)" offset="0.300781"/><stop stop-opacity="1" stop-color="rgb(85.136414%, 90.551758%, 11.573792%)" offset="0.304687"/><stop stop-opacity="1" stop-color="rgb(84.541321%, 90.359497%, 11.846924%)" offset="0.308594"/><stop stop-opacity="1" stop-color="rgb(83.946228%, 90.167236%, 12.120056%)" offset="0.3125"/><stop stop-opacity="1" stop-color="rgb(83.351135%, 89.974976%, 12.391663%)" offset="0.316406"/><stop stop-opacity="1" stop-color="rgb(82.756042%, 89.784241%, 12.664795%)" offset="0.320312"/><stop stop-opacity="1" stop-color="rgb(82.16095%, 89.59198%, 12.937927%)" offset="0.324219"/><stop stop-opacity="1" stop-color="rgb(81.565857%, 89.399719%, 13.21106%)" offset="0.328125"/><stop stop-opacity="1" stop-color="rgb(80.970764%, 89.207458%, 13.482666%)" offset="0.332031"/><stop stop-opacity="1" stop-color="rgb(80.375671%, 89.016724%, 13.755798%)" offset="0.335938"/><stop stop-opacity="1" stop-color="rgb(79.780579%, 88.824463%, 14.028931%)" offset="0.339844"/><stop stop-opacity="1" stop-color="rgb(79.187012%, 88.632202%, 14.302063%)" offset="0.34375"/><stop stop-opacity="1" stop-color="rgb(78.591919%, 88.439941%, 14.573669%)" offset="0.347656"/><stop stop-opacity="1" stop-color="rgb(77.996826%, 88.249207%, 14.846802%)" offset="0.351562"/><stop stop-opacity="1" stop-color="rgb(77.401733%, 88.056946%, 15.119934%)" offset="0.355469"/><stop stop-opacity="1" stop-color="rgb(76.806641%, 87.864685%, 15.393066%)" offset="0.359375"/><stop stop-opacity="1" stop-color="rgb(76.211548%, 87.672424%, 15.664673%)" offset="0.363281"/><stop stop-opacity="1" stop-color="rgb(75.616455%, 87.481689%, 15.937805%)" offset="0.367188"/><stop stop-opacity="1" stop-color="rgb(75.021362%, 87.289429%, 16.210938%)" offset="0.371094"/><stop stop-opacity="1" stop-color="rgb(74.42627%, 87.097168%, 16.48407%)" offset="0.375"/><stop stop-opacity="1" stop-color="rgb(73.831177%, 86.904907%, 16.755676%)" offset="0.378906"/><stop stop-opacity="1" stop-color="rgb(73.236084%, 86.714172%, 17.028809%)" offset="0.382812"/><stop stop-opacity="1" stop-color="rgb(72.640991%, 86.521912%, 17.301941%)" offset="0.386719"/><stop stop-opacity="1" stop-color="rgb(72.045898%, 86.331177%, 17.575073%)" offset="0.390625"/><stop stop-opacity="1" stop-color="rgb(71.450806%, 86.138916%, 17.84668%)" offset="0.394531"/><stop stop-opacity="1" stop-color="rgb(70.855713%, 85.946655%, 18.119812%)" offset="0.398437"/><stop stop-opacity="1" stop-color="rgb(70.26062%, 85.754395%, 18.392944%)" offset="0.402344"/><stop stop-opacity="1" stop-color="rgb(69.667053%, 85.56366%, 18.666077%)" offset="0.40625"/><stop stop-opacity="1" stop-color="rgb(69.07196%, 85.371399%, 18.937683%)" offset="0.410156"/><stop stop-opacity="1" stop-color="rgb(68.476868%, 85.179138%, 19.210815%)" offset="0.414062"/><stop stop-opacity="1" stop-color="rgb(67.881775%, 84.986877%, 19.482422%)" offset="0.417969"/><stop stop-opacity="1" stop-color="rgb(67.286682%, 84.796143%, 19.755554%)" offset="0.421875"/><stop stop-opacity="1" stop-color="rgb(66.691589%, 84.603882%, 20.028687%)" offset="0.425781"/><stop stop-opacity="1" stop-color="rgb(66.096497%, 84.411621%, 20.301819%)" offset="0.429687"/><stop stop-opacity="1" stop-color="rgb(65.501404%, 84.21936%, 20.573425%)" offset="0.433594"/><stop stop-opacity="1" stop-color="rgb(64.906311%, 84.028625%, 20.846558%)" offset="0.4375"/><stop stop-opacity="1" stop-color="rgb(64.311218%, 83.836365%, 21.11969%)" offset="0.441406"/><stop stop-opacity="1" stop-color="rgb(63.716125%, 83.644104%, 21.392822%)" offset="0.445312"/><stop stop-opacity="1" stop-color="rgb(63.121033%, 83.451843%, 21.664429%)" offset="0.449219"/><stop stop-opacity="1" stop-color="rgb(62.52594%, 83.261108%, 21.937561%)" offset="0.453125"/><stop stop-opacity="1" stop-color="rgb(61.930847%, 83.068848%, 22.210693%)" offset="0.457031"/><stop stop-opacity="1" stop-color="rgb(61.33728%, 82.876587%, 22.483826%)" offset="0.460938"/><stop stop-opacity="1" stop-color="rgb(60.742188%, 82.684326%, 22.755432%)" offset="0.464844"/><stop stop-opacity="1" stop-color="rgb(60.147095%, 82.493591%, 23.028564%)" offset="0.46875"/><stop stop-opacity="1" stop-color="rgb(59.552002%, 82.301331%, 23.301697%)" offset="0.472656"/><stop stop-opacity="1" stop-color="rgb(58.956909%, 82.10907%, 23.574829%)" offset="0.476562"/><stop stop-opacity="1" stop-color="rgb(58.361816%, 81.916809%, 23.846436%)" offset="0.480469"/><stop stop-opacity="1" stop-color="rgb(57.766724%, 81.726074%, 24.119568%)" offset="0.484375"/><stop stop-opacity="1" stop-color="rgb(57.171631%, 81.533813%, 24.3927%)" offset="0.488281"/><stop stop-opacity="1" stop-color="rgb(56.576538%, 81.341553%, 24.665833%)" offset="0.492187"/><stop stop-opacity="1" stop-color="rgb(55.981445%, 81.149292%, 24.937439%)" offset="0.496094"/><stop stop-opacity="1" stop-color="rgb(55.386353%, 80.958557%, 25.210571%)" offset="0.5"/><stop stop-opacity="1" stop-color="rgb(54.79126%, 80.766296%, 25.483704%)" offset="0.503906"/><stop stop-opacity="1" stop-color="rgb(54.196167%, 80.575562%, 25.756836%)" offset="0.507812"/><stop stop-opacity="1" stop-color="rgb(53.601074%, 80.383301%, 26.028442%)" offset="0.511719"/><stop stop-opacity="1" stop-color="rgb(53.005981%, 80.19104%, 26.301575%)" offset="0.515625"/><stop stop-opacity="1" stop-color="rgb(52.410889%, 79.998779%, 26.574707%)" offset="0.519531"/><stop stop-opacity="1" stop-color="rgb(51.817322%, 79.808044%, 26.847839%)" offset="0.523438"/><stop stop-opacity="1" stop-color="rgb(51.222229%, 79.615784%, 27.119446%)" offset="0.527344"/><stop stop-opacity="1" stop-color="rgb(50.627136%, 79.423523%, 27.392578%)" offset="0.53125"/><stop stop-opacity="1" stop-color="rgb(50.032043%, 79.231262%, 27.66571%)" offset="0.535156"/><stop stop-opacity="1" stop-color="rgb(49.436951%, 79.040527%, 27.938843%)" offset="0.539062"/><stop stop-opacity="1" stop-color="rgb(48.841858%, 78.848267%, 28.210449%)" offset="0.542969"/><stop stop-opacity="1" stop-color="rgb(48.246765%, 78.656006%, 28.483582%)" offset="0.546875"/><stop stop-opacity="1" stop-color="rgb(47.651672%, 78.463745%, 28.756714%)" offset="0.550781"/><stop stop-opacity="1" stop-color="rgb(47.05658%, 78.27301%, 29.029846%)" offset="0.554688"/><stop stop-opacity="1" stop-color="rgb(46.461487%, 78.08075%, 29.301453%)" offset="0.558594"/><stop stop-opacity="1" stop-color="rgb(45.866394%, 77.888489%, 29.574585%)" offset="0.5625"/><stop stop-opacity="1" stop-color="rgb(45.271301%, 77.696228%, 29.846191%)" offset="0.566406"/><stop stop-opacity="1" stop-color="rgb(44.676208%, 77.505493%, 30.119324%)" offset="0.570312"/><stop stop-opacity="1" stop-color="rgb(44.081116%, 77.313232%, 30.392456%)" offset="0.574219"/><stop stop-opacity="1" stop-color="rgb(43.486023%, 77.120972%, 30.665588%)" offset="0.578125"/><stop stop-opacity="1" stop-color="rgb(42.89093%, 76.928711%, 30.937195%)" offset="0.582031"/><stop stop-opacity="1" stop-color="rgb(42.297363%, 76.737976%, 31.210327%)" offset="0.585938"/><stop stop-opacity="1" stop-color="rgb(41.702271%, 76.545715%, 31.483459%)" offset="0.589844"/><stop stop-opacity="1" stop-color="rgb(41.107178%, 76.353455%, 31.756592%)" offset="0.59375"/><stop stop-opacity="1" stop-color="rgb(40.512085%, 76.161194%, 32.028198%)" offset="0.597656"/><stop stop-opacity="1" stop-color="rgb(39.916992%, 75.970459%, 32.301331%)" offset="0.601562"/><stop stop-opacity="1" stop-color="rgb(39.321899%, 75.778198%, 32.574463%)" offset="0.605469"/><stop stop-opacity="1" stop-color="rgb(38.726807%, 75.587463%, 32.847595%)" offset="0.609375"/><stop stop-opacity="1" stop-color="rgb(38.131714%, 75.395203%, 33.119202%)" offset="0.613281"/><stop stop-opacity="1" stop-color="rgb(37.536621%, 75.202942%, 33.392334%)" offset="0.617188"/><stop stop-opacity="1" stop-color="rgb(36.941528%, 75.010681%, 33.665466%)" offset="0.621094"/><stop stop-opacity="1" stop-color="rgb(36.346436%, 74.819946%, 33.938599%)" offset="0.625"/><stop stop-opacity="1" stop-color="rgb(35.751343%, 74.627686%, 34.210205%)" offset="0.628906"/><stop stop-opacity="1" stop-color="rgb(35.15625%, 74.435425%, 34.483337%)" offset="0.632812"/><stop stop-opacity="1" stop-color="rgb(34.561157%, 74.243164%, 34.75647%)" offset="0.636719"/><stop stop-opacity="1" stop-color="rgb(33.96759%, 74.052429%, 35.029602%)" offset="0.640625"/><stop stop-opacity="1" stop-color="rgb(33.372498%, 73.860168%, 35.301208%)" offset="0.644531"/><stop stop-opacity="1" stop-color="rgb(32.777405%, 73.667908%, 35.574341%)" offset="0.648437"/><stop stop-opacity="1" stop-color="rgb(32.182312%, 73.475647%, 35.847473%)" offset="0.652344"/><stop stop-opacity="1" stop-color="rgb(31.587219%, 73.284912%, 36.120605%)" offset="0.65625"/><stop stop-opacity="1" stop-color="rgb(30.992126%, 73.092651%, 36.392212%)" offset="0.660156"/><stop stop-opacity="1" stop-color="rgb(30.397034%, 72.900391%, 36.665344%)" offset="0.664062"/><stop stop-opacity="1" stop-color="rgb(29.801941%, 72.70813%, 36.938477%)" offset="0.667969"/><stop stop-opacity="1" stop-color="rgb(29.206848%, 72.517395%, 37.211609%)" offset="0.671875"/><stop stop-opacity="1" stop-color="rgb(28.611755%, 72.325134%, 37.483215%)" offset="0.675781"/><stop stop-opacity="1" stop-color="rgb(28.016663%, 72.132874%, 37.756348%)" offset="0.679688"/><stop stop-opacity="1" stop-color="rgb(27.42157%, 71.940613%, 38.02948%)" offset="0.683594"/><stop stop-opacity="1" stop-color="rgb(26.826477%, 71.749878%, 38.302612%)" offset="0.6875"/><stop stop-opacity="1" stop-color="rgb(26.231384%, 71.557617%, 38.574219%)" offset="0.691406"/><stop stop-opacity="1" stop-color="rgb(25.636292%, 71.365356%, 38.847351%)" offset="0.695312"/><stop stop-opacity="1" stop-color="rgb(25.041199%, 71.173096%, 39.120483%)" offset="0.699219"/><stop stop-opacity="1" stop-color="rgb(24.447632%, 70.982361%, 39.393616%)" offset="0.703125"/><stop stop-opacity="1" stop-color="rgb(23.852539%, 70.7901%, 39.665222%)" offset="0.707031"/><stop stop-opacity="1" stop-color="rgb(23.257446%, 70.597839%, 39.938354%)" offset="0.710938"/><stop stop-opacity="1" stop-color="rgb(22.662354%, 70.405579%, 40.211487%)" offset="0.714844"/><stop stop-opacity="1" stop-color="rgb(22.067261%, 70.214844%, 40.484619%)" offset="0.71875"/><stop stop-opacity="1" stop-color="rgb(21.472168%, 70.022583%, 40.756226%)" offset="0.722656"/><stop stop-opacity="1" stop-color="rgb(20.877075%, 69.831848%, 41.029358%)" offset="0.726563"/><stop stop-opacity="1" stop-color="rgb(20.281982%, 69.639587%, 41.300964%)" offset="0.730469"/><stop stop-opacity="1" stop-color="rgb(19.68689%, 69.447327%, 41.574097%)" offset="0.734375"/><stop stop-opacity="1" stop-color="rgb(19.091797%, 69.255066%, 41.847229%)" offset="0.738281"/><stop stop-opacity="1" stop-color="rgb(18.496704%, 69.064331%, 42.120361%)" offset="0.742188"/><stop stop-opacity="1" stop-color="rgb(17.901611%, 68.87207%, 42.391968%)" offset="0.746094"/><stop stop-opacity="1" stop-color="rgb(17.306519%, 68.67981%, 42.6651%)" offset="0.75"/><stop stop-opacity="1" stop-color="rgb(16.711426%, 68.487549%, 42.938232%)" offset="0.753906"/><stop stop-opacity="1" stop-color="rgb(16.117859%, 68.296814%, 43.211365%)" offset="0.757813"/><stop stop-opacity="1" stop-color="rgb(15.522766%, 68.104553%, 43.482971%)" offset="0.761719"/><stop stop-opacity="1" stop-color="rgb(14.927673%, 67.912292%, 43.756104%)" offset="0.765625"/><stop stop-opacity="1" stop-color="rgb(14.332581%, 67.720032%, 44.029236%)" offset="0.769531"/><stop stop-opacity="1" stop-color="rgb(13.737488%, 67.529297%, 44.302368%)" offset="0.773438"/><stop stop-opacity="1" stop-color="rgb(13.142395%, 67.337036%, 44.573975%)" offset="0.777344"/><stop stop-opacity="1" stop-color="rgb(12.547302%, 67.144775%, 44.847107%)" offset="0.78125"/><stop stop-opacity="1" stop-color="rgb(11.952209%, 66.952515%, 45.120239%)" offset="0.785156"/><stop stop-opacity="1" stop-color="rgb(11.357117%, 66.76178%, 45.393372%)" offset="0.789062"/><stop stop-opacity="1" stop-color="rgb(10.762024%, 66.569519%, 45.664978%)" offset="0.792969"/><stop stop-opacity="1" stop-color="rgb(10.166931%, 66.377258%, 45.93811%)" offset="0.796875"/><stop stop-opacity="1" stop-color="rgb(9.571838%, 66.184998%, 46.211243%)" offset="0.800781"/><stop stop-opacity="1" stop-color="rgb(8.976746%, 65.994263%, 46.484375%)" offset="0.804688"/><stop stop-opacity="1" stop-color="rgb(8.381653%, 65.802002%, 46.755981%)" offset="0.808594"/><stop stop-opacity="1" stop-color="rgb(7.78656%, 65.609741%, 47.029114%)" offset="0.8125"/><stop stop-opacity="1" stop-color="rgb(7.191467%, 65.41748%, 47.302246%)" offset="0.816406"/><stop stop-opacity="1" stop-color="rgb(6.5979%, 65.226746%, 47.575378%)" offset="0.820312"/><stop stop-opacity="1" stop-color="rgb(6.002808%, 65.034485%, 47.846985%)" offset="0.824219"/><stop stop-opacity="1" stop-color="rgb(5.407715%, 64.84375%, 48.120117%)" offset="0.828125"/><stop stop-opacity="1" stop-color="rgb(4.812622%, 64.651489%, 48.39325%)" offset="0.832031"/><stop stop-opacity="1" stop-color="rgb(4.217529%, 64.459229%, 48.666382%)" offset="0.835937"/><stop stop-opacity="1" stop-color="rgb(3.622437%, 64.266968%, 48.937988%)" offset="0.839844"/><stop stop-opacity="1" stop-color="rgb(3.027344%, 64.076233%, 49.211121%)" offset="0.84375"/><stop stop-opacity="1" stop-color="rgb(2.432251%, 63.883972%, 49.484253%)" offset="0.847656"/><stop stop-opacity="1" stop-color="rgb(1.837158%, 63.691711%, 49.757385%)" offset="0.851562"/><stop stop-opacity="1" stop-color="rgb(1.242065%, 63.499451%, 50.028992%)" offset="0.855469"/><stop stop-opacity="1" stop-color="rgb(0.646973%, 63.308716%, 50.302124%)" offset="0.859375"/><stop stop-opacity="1" stop-color="rgb(0.323486%, 63.20343%, 50.450134%)" offset="0.863281"/><stop stop-opacity="1" stop-color="rgb(0%, 63.09967%, 50.59967%)" offset="0.867187"/><stop stop-opacity="1" stop-color="rgb(0%, 63.09967%, 50.59967%)" offset="0.875"/><stop stop-opacity="1" stop-color="rgb(0%, 63.09967%, 50.59967%)" offset="1"/></linearGradient></defs><g clip-path="url(#bcedeaa4e5)"><g clip-path="url(#17c67b6d84)"><path fill="url(#e12fe21c6a)" d="M 91.957031 162.332031 L 91.957031 212.523438 L 160.207031 212.523438 L 160.207031 162.332031 Z M 91.957031 162.332031 " fill-rule="nonzero"/></g></g><g fill="#ffffff" fill-opacity="1"><g transform="translate(164.74873, 199.066101)"><g><path d="M 10.640625 -16.015625 L 10.640625 -12.890625 L 7.5625 -12.890625 L 7.5625 0 L 3.1875 0 L 3.1875 -12.890625 L 0.125 -12.890625 L 0.125 -16.015625 Z M 10.640625 -16.015625 "/></g></g></g><g fill="#ffffff" fill-opacity="1"><g transform="translate(178.858093, 199.066101)"><g><path d="M 5.359375 -3.109375 L 10.828125 -3.109375 L 10.828125 0 L 1 0 L 1 -16.015625 L 10.59375 -16.015625 L 10.59375 -12.890625 L 5.359375 -12.890625 L 5.359375 -9.625 L 9.875 -9.625 L 9.875 -6.515625 L 5.359375 -6.515625 Z M 5.359375 -3.109375 "/></g></g></g><g fill="#ffffff" fill-opacity="1"><g transform="translate(193.391196, 199.066101)"><g><path d="M 11.71875 -10.03125 L 7.359375 -10.03125 L 7.359375 -12.59375 C 7.359375 -12.957031 7.148438 -13.140625 6.734375 -13.140625 L 5.859375 -13.140625 C 5.441406 -13.140625 5.234375 -12.957031 5.234375 -12.59375 L 5.234375 -3.421875 C 5.234375 -3.054688 5.441406 -2.875 5.859375 -2.875 L 6.734375 -2.875 C 7.148438 -2.875 7.359375 -3.054688 7.359375 -3.421875 L 7.359375 -5.890625 L 11.71875 -5.890625 L 11.71875 -3.09375 C 11.71875 -1.03125 10.5 0 8.0625 0 L 4.53125 0 C 2.09375 0 0.875 -1.03125 0.875 -3.09375 L 0.875 -12.921875 C 0.875 -14.984375 2.09375 -16.015625 4.53125 -16.015625 L 8.0625 -16.015625 C 10.5 -16.015625 11.71875 -14.984375 11.71875 -12.921875 Z M 11.71875 -10.03125 "/></g></g></g><g fill="#ffffff" fill-opacity="1"><g transform="translate(209.070882, 199.066101)"><g><path d="M 8.421875 -16.015625 L 12.71875 -16.015625 L 12.71875 0 L 8.421875 0 L 8.421875 -6.328125 L 5.28125 -6.328125 L 5.28125 0 L 1 0 L 1 -16.015625 L 5.28125 -16.015625 L 5.28125 -9.453125 L 8.421875 -9.453125 Z M 8.421875 -16.015625 "/></g></g></g><g fill="#ffffff" fill-opacity="1"><g transform="translate(226.121491, 199.066101)"><g><path d="M 7.703125 -10 L 7.703125 -12.59375 C 7.703125 -12.957031 7.492188 -13.140625 7.078125 -13.140625 L 5.28125 -13.140625 L 5.28125 -9.453125 L 7.078125 -9.453125 C 7.492188 -9.453125 7.703125 -9.632812 7.703125 -10 Z M 7.703125 -3.421875 L 7.703125 -6.03125 C 7.703125 -6.394531 7.492188 -6.578125 7.078125 -6.578125 L 5.28125 -6.578125 L 5.28125 -2.875 L 7.078125 -2.875 C 7.492188 -2.875 7.703125 -3.054688 7.703125 -3.421875 Z M 1 -16.015625 L 8.328125 -16.015625 C 10.773438 -16.015625 12 -14.984375 12 -12.921875 L 12 -10.875 C 12 -9.425781 11.597656 -8.488281 10.796875 -8.0625 C 11.265625 -7.851562 11.582031 -7.546875 11.75 -7.140625 C 11.914062 -6.734375 12 -6.179688 12 -5.484375 L 12 -3.09375 C 12 -1.03125 10.773438 0 8.328125 0 L 1 0 Z M 1 -16.015625 "/></g></g></g><g fill="#ffffff" fill-opacity="1"><g transform="translate(242.324619, 199.066101)"><g><path d="M 1 -16.015625 L 5.359375 -16.015625 L 5.359375 0 L 1 0 Z M 1 -16.015625 "/></g></g></g><g fill="#ffffff" fill-opacity="1"><g transform="translate(252.022124, 199.066101)"><g><path d="M 5.359375 -5.6875 L 5.359375 0 L 1 0 L 1 -16.015625 L 8.40625 -16.015625 C 10.84375 -16.015625 12.0625 -14.984375 12.0625 -12.921875 L 12.0625 -8.78125 C 12.0625 -7.195312 11.347656 -6.222656 9.921875 -5.859375 L 12.875 0 L 8.171875 0 L 5.640625 -5.6875 Z M 7.078125 -12.890625 L 5.359375 -12.890625 L 5.359375 -8.65625 L 7.078125 -8.65625 C 7.492188 -8.65625 7.703125 -8.835938 7.703125 -9.203125 L 7.703125 -12.34375 C 7.703125 -12.707031 7.492188 -12.890625 7.078125 -12.890625 Z M 7.078125 -12.890625 "/></g></g></g><g fill="#ffffff" fill-opacity="1"><g transform="translate(268.175401, 199.066101)"><g><path d="M 1.25 -16.015625 L 8.609375 -16.015625 C 11.046875 -16.015625 12.265625 -14.984375 12.265625 -12.921875 L 12.265625 -3.09375 C 12.265625 -1.03125 11.046875 0 8.609375 0 L 1.25 0 Z M 7.90625 -3.421875 L 7.90625 -12.59375 C 7.90625 -12.957031 7.695312 -13.140625 7.28125 -13.140625 L 5.609375 -13.140625 L 5.609375 -2.875 L 7.28125 -2.875 C 7.695312 -2.875 7.90625 -3.054688 7.90625 -3.421875 Z M 7.90625 -3.421875 "/></g></g></g></svg>