<svg xmlns="http://www.w3.org/2000/svg" xmlns:xlink="http://www.w3.org/1999/xlink" width="500" zoomAndPan="magnify" viewBox="0 0 375 374.999991" height="500" preserveAspectRatio="xMidYMid meet" version="1.0"><defs><g/><clipPath id="ef2fb248b2"><path d="M 119.308594 114 L 255.808594 114 L 255.808594 215 L 119.308594 215 Z M 119.308594 114 " clip-rule="nonzero"/></clipPath><clipPath id="ae32434d6d"><path d="M 136.042969 114.875 L 146.148438 131.363281 L 146.300781 131.511719 C 160.152344 140.167969 173.480469 148.746094 187.144531 157.699219 L 187.558594 157.214844 L 165.84375 133.898438 L 165.804688 133.863281 L 148.023438 119.984375 L 147.945312 119.949219 L 136.492188 114.390625 Z M 124.734375 183.738281 L 129.414062 184.074219 L 123.910156 176.949219 L 123.273438 177.207031 L 123.835938 181.910156 C 123.835938 182.019531 123.800781 182.171875 123.648438 182.207031 L 119.308594 184.257812 L 119.492188 184.855469 L 124.585938 183.773438 C 124.621094 183.773438 124.660156 183.773438 124.699219 183.773438 Z M 130.761719 189.070312 L 124.285156 190.824219 L 124.023438 191.011719 L 121.703125 194.480469 L 122.113281 195.039062 L 127.054688 193.585938 L 127.242188 193.472656 L 131.136719 189.667969 L 130.800781 189.109375 Z M 141.019531 184.445312 L 132.109375 182.917969 L 131.8125 183.511719 L 135.40625 186.570312 C 135.515625 186.648438 135.554688 186.796875 135.515625 186.945312 L 133.71875 191.382812 L 134.28125 191.683594 L 137.316406 187.429688 C 137.316406 187.390625 137.351562 187.390625 137.390625 187.355469 L 141.058594 184.445312 Z M 149.21875 178.589844 L 129.039062 176.351562 L 128.890625 176.949219 L 142.070312 181.386719 L 142.332031 181.386719 L 149.257812 179.222656 L 149.183594 178.589844 Z M 152.175781 177.058594 L 158.46875 177.84375 C 160.527344 175.679688 162.0625 174.1875 164.269531 172.171875 L 163.96875 171.574219 L 157.082031 172.582031 L 156.933594 172.621094 L 153.414062 174.523438 L 153.226562 174.710938 L 152.175781 177.023438 Z M 142.144531 190.003906 L 150.34375 187.578125 L 150.53125 187.46875 L 156.96875 181.164062 L 156.632812 180.601562 L 145.886719 183.511719 L 145.625 183.699219 L 141.730469 189.480469 L 142.144531 190.042969 Z M 130.425781 198.695312 L 133.871094 199.144531 C 134.882812 198.0625 135.667969 197.316406 136.753906 196.308594 L 136.453125 195.710938 L 133.082031 196.195312 L 132.933594 196.234375 L 131.175781 197.167969 L 130.988281 197.351562 L 130.386719 198.65625 Z M 137.425781 202.835938 L 126.832031 201.640625 L 126.683594 202.238281 L 133.609375 204.589844 L 133.871094 204.589844 L 137.464844 203.46875 L 137.390625 202.835938 Z M 137.726562 199.292969 L 145.25 197.167969 L 145.476562 197.015625 L 147.945312 193.882812 L 147.535156 193.398438 L 137.5 198.734375 Z M 153.972656 202.835938 L 153 203.359375 C 152.964844 203.359375 152.925781 203.394531 152.890625 203.394531 L 144.800781 204.214844 L 144.539062 204.367188 L 135.40625 214.214844 L 135.78125 214.773438 L 151.167969 208.917969 L 151.316406 208.84375 L 162.0625 199.402344 L 161.6875 198.882812 L 154.347656 202.6875 C 154.273438 202.722656 154.199219 202.722656 154.125 202.722656 C 154.085938 202.796875 154.050781 202.875 153.972656 202.910156 Z M 154.050781 202.089844 L 166.402344 194.292969 L 166.140625 193.695312 L 156.332031 196.308594 L 156.257812 196.308594 L 149.519531 196.679688 L 144.953125 202.875 L 153.636719 202.277344 L 153.710938 202.238281 C 153.789062 202.203125 153.863281 202.203125 153.9375 202.238281 C 153.972656 202.164062 154.011719 202.128906 154.050781 202.089844 Z M 187.820312 193.621094 L 168.125 198.546875 L 168.199219 199.144531 L 182.089844 198.734375 L 182.351562 198.65625 L 188.082031 194.21875 L 187.78125 193.621094 Z M 186.320312 178.214844 L 175.800781 176.984375 L 175.726562 176.984375 L 169.097656 174.671875 L 152.515625 190.226562 L 152.8125 190.824219 L 168.351562 187.207031 L 168.425781 187.167969 L 186.433594 178.886719 Z M 176.960938 174.113281 L 186.695312 175.640625 L 186.921875 175.640625 L 192.347656 173.890625 L 192.3125 173.21875 L 172.167969 169.898438 L 171.90625 170.496094 L 176.8125 174 L 177 174.074219 Z M 190.402344 189.109375 L 190.8125 179.335938 L 172.09375 188.25 L 172.167969 188.921875 L 181.378906 191.121094 L 181.566406 191.121094 Z M 199.199219 183.214844 L 201.632812 174.558594 L 201.070312 174.222656 L 200.472656 174.820312 C 200.433594 174.859375 200.398438 174.859375 200.398438 174.894531 C 200.398438 174.933594 200.359375 174.96875 200.324219 174.96875 L 193.246094 182.09375 L 193.136719 182.355469 L 192.648438 189.332031 L 193.285156 189.59375 L 199.164062 183.402344 L 199.273438 183.214844 Z M 212.789062 171.015625 L 205.75 176.386719 L 205.601562 176.574219 L 201.410156 186.609375 C 201.371094 186.648438 201.371094 186.683594 201.332031 186.722656 L 188.566406 197.089844 L 188.90625 197.652344 L 202.570312 192.019531 L 202.71875 191.90625 L 214.175781 179.484375 Z M 214.0625 162.210938 L 212.003906 153.519531 L 211.328125 153.484375 L 203.804688 173.890625 L 204.328125 174.300781 L 212.226562 168.777344 L 212.378906 168.554688 L 214.0625 162.398438 L 214.0625 162.175781 Z M 231.171875 151.917969 L 255.917969 142.851562 L 255.769531 142.253906 L 229.226562 147.367188 Z M 233.417969 153.519531 L 220.425781 162.101562 L 220.015625 175.605469 L 220.652344 175.753906 L 225.480469 163.890625 C 225.480469 163.855469 225.519531 163.816406 225.519531 163.816406 L 233.832031 154.042969 L 233.417969 153.558594 Z M 219.417969 151.207031 L 217.882812 153.707031 C 217.84375 153.78125 217.808594 153.820312 217.730469 153.820312 L 216.234375 154.378906 C 216.121094 154.417969 215.972656 154.417969 215.898438 154.304688 C 215.785156 154.191406 215.785156 154.007812 215.898438 153.855469 C 216.046875 153.707031 216.195312 153.484375 216.308594 153.261719 C 216.382812 153.035156 216.460938 152.8125 216.460938 152.550781 C 216.460938 152.289062 216.421875 152.066406 216.308594 151.84375 C 216.234375 151.617188 216.085938 151.433594 215.898438 151.246094 C 215.746094 151.097656 215.523438 150.945312 215.296875 150.835938 C 215.074219 150.761719 214.847656 150.6875 214.585938 150.6875 C 214.324219 150.6875 214.101562 150.722656 213.875 150.835938 C 213.652344 150.910156 213.464844 151.058594 213.277344 151.246094 C 213.128906 151.394531 212.976562 151.617188 212.863281 151.84375 C 212.789062 152.066406 212.714844 152.289062 212.714844 152.550781 C 212.714844 152.8125 212.753906 153.035156 212.863281 153.261719 C 212.941406 153.484375 213.089844 153.671875 213.277344 153.855469 C 213.425781 154.007812 213.613281 154.15625 213.800781 154.230469 C 213.988281 154.304688 214.210938 154.378906 214.4375 154.378906 C 214.550781 154.378906 214.660156 154.453125 214.699219 154.566406 C 214.773438 154.714844 214.660156 154.902344 214.511719 154.976562 L 214.210938 155.089844 L 216.121094 161.503906 C 219.265625 158.632812 222.222656 155.722656 225.292969 152.738281 L 226.417969 151.617188 L 226.15625 150.984375 L 219.378906 151.132812 Z M 207.0625 144.382812 L 216.910156 147.140625 L 217.09375 147.140625 L 226.792969 145.5 L 226.828125 144.828125 L 214.886719 141.917969 L 214.699219 141.917969 L 207.136719 143.710938 L 207.136719 144.382812 Z M 196.992188 157.066406 L 211.144531 148.410156 L 204.253906 146.320312 L 199.386719 150.574219 L 199.273438 150.722656 L 196.46875 156.578125 L 196.953125 157.027344 Z M 198.226562 160.796875 C 198.113281 160.871094 197.964844 160.871094 197.851562 160.796875 L 187.257812 152.773438 L 186.808594 153.222656 L 195.679688 163.855469 C 195.679688 163.890625 195.71875 163.890625 195.71875 163.929688 L 200.136719 174.074219 L 209.53125 153.78125 L 209.007812 153.335938 L 198.1875 160.757812 Z M 163.820312 128.417969 C 173.78125 137.21875 183.363281 145.648438 194.296875 153.671875 L 194.78125 153.222656 L 190.664062 147.066406 L 190.550781 146.957031 L 156.519531 121.214844 L 156.144531 121.664062 C 158.691406 123.902344 161.273438 126.179688 163.820312 128.417969 Z M 194.035156 170.53125 L 163.035156 156.132812 L 162.585938 156.617188 L 168.949219 166.726562 L 193.847656 171.089844 L 194.035156 170.496094 Z M 163.445312 144.570312 L 150.71875 138.710938 L 150.304688 139.234375 L 159.816406 152.066406 L 160.003906 152.214844 L 193.585938 167.25 L 193.882812 166.726562 L 163.519531 144.644531 L 163.445312 144.605469 Z M 163.445312 144.570312 " clip-rule="evenodd"/></clipPath><linearGradient x1="38.578304" gradientTransform="matrix(3.743829, 0, 0, 3.730329, 119.306658, 114.390047)" y1="4.174409" x2="-1.274775" gradientUnits="userSpaceOnUse" y2="24.397879" id="6403c64332"><stop stop-opacity="1" stop-color="rgb(94.898987%, 93.699646%, 7.099915%)" offset="0"/><stop stop-opacity="1" stop-color="rgb(94.898987%, 93.699646%, 7.099915%)" offset="0.125"/><stop stop-opacity="1" stop-color="rgb(94.898987%, 93.699646%, 7.099915%)" offset="0.1875"/><stop stop-opacity="1" stop-color="rgb(94.898987%, 93.699646%, 7.099915%)" offset="0.21875"/><stop stop-opacity="1" stop-color="rgb(94.898987%, 93.699646%, 7.099915%)" offset="0.234375"/><stop stop-opacity="1" stop-color="rgb(94.776917%, 93.659973%, 7.154846%)" offset="0.242187"/><stop stop-opacity="1" stop-color="rgb(94.061279%, 93.42804%, 7.48291%)" offset="0.246094"/><stop stop-opacity="1" stop-color="rgb(93.466187%, 93.237305%, 7.756042%)" offset="0.25"/><stop stop-opacity="1" stop-color="rgb(92.871094%, 93.045044%, 8.029175%)" offset="0.253906"/><stop stop-opacity="1" stop-color="rgb(92.276001%, 92.852783%, 8.302307%)" offset="0.257812"/><stop stop-opacity="1" stop-color="rgb(91.680908%, 92.660522%, 8.573914%)" offset="0.261719"/><stop stop-opacity="1" stop-color="rgb(91.085815%, 92.469788%, 8.847046%)" offset="0.265625"/><stop stop-opacity="1" stop-color="rgb(90.490723%, 92.277527%, 9.118652%)" offset="0.269531"/><stop stop-opacity="1" stop-color="rgb(89.89563%, 92.085266%, 9.391785%)" offset="0.273438"/><stop stop-opacity="1" stop-color="rgb(89.300537%, 91.893005%, 9.664917%)" offset="0.277344"/><stop stop-opacity="1" stop-color="rgb(88.705444%, 91.702271%, 9.938049%)" offset="0.28125"/><stop stop-opacity="1" stop-color="rgb(88.110352%, 91.51001%, 10.209656%)" offset="0.285156"/><stop stop-opacity="1" stop-color="rgb(87.516785%, 91.319275%, 10.482788%)" offset="0.289062"/><stop stop-opacity="1" stop-color="rgb(86.921692%, 91.127014%, 10.75592%)" offset="0.292969"/><stop stop-opacity="1" stop-color="rgb(86.326599%, 90.934753%, 11.029053%)" offset="0.296875"/><stop stop-opacity="1" stop-color="rgb(85.731506%, 90.742493%, 11.300659%)" offset="0.300781"/><stop stop-opacity="1" stop-color="rgb(85.136414%, 90.551758%, 11.573792%)" offset="0.304688"/><stop stop-opacity="1" stop-color="rgb(84.541321%, 90.359497%, 11.846924%)" offset="0.308594"/><stop stop-opacity="1" stop-color="rgb(83.946228%, 90.167236%, 12.120056%)" offset="0.3125"/><stop stop-opacity="1" stop-color="rgb(83.351135%, 89.974976%, 12.391663%)" offset="0.316406"/><stop stop-opacity="1" stop-color="rgb(82.756042%, 89.784241%, 12.664795%)" offset="0.320312"/><stop stop-opacity="1" stop-color="rgb(82.16095%, 89.59198%, 12.937927%)" offset="0.324219"/><stop stop-opacity="1" stop-color="rgb(81.565857%, 89.399719%, 13.21106%)" offset="0.328125"/><stop stop-opacity="1" stop-color="rgb(80.970764%, 89.207458%, 13.482666%)" offset="0.332031"/><stop stop-opacity="1" stop-color="rgb(80.375671%, 89.016724%, 13.755798%)" offset="0.335938"/><stop stop-opacity="1" stop-color="rgb(79.780579%, 88.824463%, 14.028931%)" offset="0.339844"/><stop stop-opacity="1" stop-color="rgb(79.187012%, 88.632202%, 14.302063%)" offset="0.34375"/><stop stop-opacity="1" stop-color="rgb(78.591919%, 88.439941%, 14.573669%)" offset="0.347656"/><stop stop-opacity="1" stop-color="rgb(77.996826%, 88.249207%, 14.846802%)" offset="0.351562"/><stop stop-opacity="1" stop-color="rgb(77.401733%, 88.056946%, 15.119934%)" offset="0.355469"/><stop stop-opacity="1" stop-color="rgb(76.806641%, 87.864685%, 15.393066%)" offset="0.359375"/><stop stop-opacity="1" stop-color="rgb(76.211548%, 87.672424%, 15.664673%)" offset="0.363281"/><stop stop-opacity="1" stop-color="rgb(75.616455%, 87.481689%, 15.937805%)" offset="0.367187"/><stop stop-opacity="1" stop-color="rgb(75.021362%, 87.289429%, 16.210938%)" offset="0.371094"/><stop stop-opacity="1" stop-color="rgb(74.42627%, 87.097168%, 16.48407%)" offset="0.375"/><stop stop-opacity="1" stop-color="rgb(73.831177%, 86.904907%, 16.755676%)" offset="0.378906"/><stop stop-opacity="1" stop-color="rgb(73.236084%, 86.714172%, 17.028809%)" offset="0.382812"/><stop stop-opacity="1" stop-color="rgb(72.640991%, 86.521912%, 17.301941%)" offset="0.386719"/><stop stop-opacity="1" stop-color="rgb(72.045898%, 86.331177%, 17.575073%)" offset="0.390625"/><stop stop-opacity="1" stop-color="rgb(71.450806%, 86.138916%, 17.84668%)" offset="0.394531"/><stop stop-opacity="1" stop-color="rgb(70.855713%, 85.946655%, 18.119812%)" offset="0.398438"/><stop stop-opacity="1" stop-color="rgb(70.26062%, 85.754395%, 18.392944%)" offset="0.402344"/><stop stop-opacity="1" stop-color="rgb(69.667053%, 85.56366%, 18.666077%)" offset="0.40625"/><stop stop-opacity="1" stop-color="rgb(69.07196%, 85.371399%, 18.937683%)" offset="0.410156"/><stop stop-opacity="1" stop-color="rgb(68.476868%, 85.179138%, 19.210815%)" offset="0.414062"/><stop stop-opacity="1" stop-color="rgb(67.881775%, 84.986877%, 19.482422%)" offset="0.417969"/><stop stop-opacity="1" stop-color="rgb(67.286682%, 84.796143%, 19.755554%)" offset="0.421875"/><stop stop-opacity="1" stop-color="rgb(66.691589%, 84.603882%, 20.028687%)" offset="0.425781"/><stop stop-opacity="1" stop-color="rgb(66.096497%, 84.411621%, 20.301819%)" offset="0.429688"/><stop stop-opacity="1" stop-color="rgb(65.501404%, 84.21936%, 20.573425%)" offset="0.433594"/><stop stop-opacity="1" stop-color="rgb(64.906311%, 84.028625%, 20.846558%)" offset="0.4375"/><stop stop-opacity="1" stop-color="rgb(64.311218%, 83.836365%, 21.11969%)" offset="0.441406"/><stop stop-opacity="1" stop-color="rgb(63.716125%, 83.644104%, 21.392822%)" offset="0.445312"/><stop stop-opacity="1" stop-color="rgb(63.121033%, 83.451843%, 21.664429%)" offset="0.449219"/><stop stop-opacity="1" stop-color="rgb(62.52594%, 83.261108%, 21.937561%)" offset="0.453125"/><stop stop-opacity="1" stop-color="rgb(61.930847%, 83.068848%, 22.210693%)" offset="0.457031"/><stop stop-opacity="1" stop-color="rgb(61.33728%, 82.876587%, 22.483826%)" offset="0.460937"/><stop stop-opacity="1" stop-color="rgb(60.742188%, 82.684326%, 22.755432%)" offset="0.464844"/><stop stop-opacity="1" stop-color="rgb(60.147095%, 82.493591%, 23.028564%)" offset="0.46875"/><stop stop-opacity="1" stop-color="rgb(59.552002%, 82.301331%, 23.301697%)" offset="0.472656"/><stop stop-opacity="1" stop-color="rgb(58.956909%, 82.10907%, 23.574829%)" offset="0.476562"/><stop stop-opacity="1" stop-color="rgb(58.361816%, 81.916809%, 23.846436%)" offset="0.480469"/><stop stop-opacity="1" stop-color="rgb(57.766724%, 81.726074%, 24.119568%)" offset="0.484375"/><stop stop-opacity="1" stop-color="rgb(57.171631%, 81.533813%, 24.3927%)" offset="0.488281"/><stop stop-opacity="1" stop-color="rgb(56.576538%, 81.341553%, 24.665833%)" offset="0.492188"/><stop stop-opacity="1" stop-color="rgb(55.981445%, 81.149292%, 24.937439%)" offset="0.496094"/><stop stop-opacity="1" stop-color="rgb(55.386353%, 80.958557%, 25.210571%)" offset="0.5"/><stop stop-opacity="1" stop-color="rgb(54.79126%, 80.766296%, 25.483704%)" offset="0.503906"/><stop stop-opacity="1" stop-color="rgb(54.196167%, 80.575562%, 25.756836%)" offset="0.507812"/><stop stop-opacity="1" stop-color="rgb(53.601074%, 80.383301%, 26.028442%)" offset="0.511719"/><stop stop-opacity="1" stop-color="rgb(53.005981%, 80.19104%, 26.301575%)" offset="0.515625"/><stop stop-opacity="1" stop-color="rgb(52.410889%, 79.998779%, 26.574707%)" offset="0.519531"/><stop stop-opacity="1" stop-color="rgb(51.817322%, 79.808044%, 26.847839%)" offset="0.523438"/><stop stop-opacity="1" stop-color="rgb(51.222229%, 79.615784%, 27.119446%)" offset="0.527344"/><stop stop-opacity="1" stop-color="rgb(50.627136%, 79.423523%, 27.392578%)" offset="0.53125"/><stop stop-opacity="1" stop-color="rgb(50.032043%, 79.231262%, 27.66571%)" offset="0.535156"/><stop stop-opacity="1" stop-color="rgb(49.436951%, 79.040527%, 27.938843%)" offset="0.539062"/><stop stop-opacity="1" stop-color="rgb(48.841858%, 78.848267%, 28.210449%)" offset="0.542969"/><stop stop-opacity="1" stop-color="rgb(48.246765%, 78.656006%, 28.483582%)" offset="0.546875"/><stop stop-opacity="1" stop-color="rgb(47.651672%, 78.463745%, 28.756714%)" offset="0.550781"/><stop stop-opacity="1" stop-color="rgb(47.05658%, 78.27301%, 29.029846%)" offset="0.554688"/><stop stop-opacity="1" stop-color="rgb(46.461487%, 78.08075%, 29.301453%)" offset="0.558594"/><stop stop-opacity="1" stop-color="rgb(45.866394%, 77.888489%, 29.574585%)" offset="0.5625"/><stop stop-opacity="1" stop-color="rgb(45.271301%, 77.696228%, 29.846191%)" offset="0.566406"/><stop stop-opacity="1" stop-color="rgb(44.676208%, 77.505493%, 30.119324%)" offset="0.570312"/><stop stop-opacity="1" stop-color="rgb(44.081116%, 77.313232%, 30.392456%)" offset="0.574219"/><stop stop-opacity="1" stop-color="rgb(43.486023%, 77.120972%, 30.665588%)" offset="0.578125"/><stop stop-opacity="1" stop-color="rgb(42.89093%, 76.928711%, 30.937195%)" offset="0.582031"/><stop stop-opacity="1" stop-color="rgb(42.297363%, 76.737976%, 31.210327%)" offset="0.585938"/><stop stop-opacity="1" stop-color="rgb(41.702271%, 76.545715%, 31.483459%)" offset="0.589844"/><stop stop-opacity="1" stop-color="rgb(41.107178%, 76.353455%, 31.756592%)" offset="0.59375"/><stop stop-opacity="1" stop-color="rgb(40.512085%, 76.161194%, 32.028198%)" offset="0.597656"/><stop stop-opacity="1" stop-color="rgb(39.916992%, 75.970459%, 32.301331%)" offset="0.601562"/><stop stop-opacity="1" stop-color="rgb(39.321899%, 75.778198%, 32.574463%)" offset="0.605469"/><stop stop-opacity="1" stop-color="rgb(38.726807%, 75.587463%, 32.847595%)" offset="0.609375"/><stop stop-opacity="1" stop-color="rgb(38.131714%, 75.395203%, 33.119202%)" offset="0.613281"/><stop stop-opacity="1" stop-color="rgb(37.536621%, 75.202942%, 33.392334%)" offset="0.617188"/><stop stop-opacity="1" stop-color="rgb(36.941528%, 75.010681%, 33.665466%)" offset="0.621094"/><stop stop-opacity="1" stop-color="rgb(36.346436%, 74.819946%, 33.938599%)" offset="0.625"/><stop stop-opacity="1" stop-color="rgb(35.751343%, 74.627686%, 34.210205%)" offset="0.628906"/><stop stop-opacity="1" stop-color="rgb(35.15625%, 74.435425%, 34.483337%)" offset="0.632812"/><stop stop-opacity="1" stop-color="rgb(34.561157%, 74.243164%, 34.75647%)" offset="0.636719"/><stop stop-opacity="1" stop-color="rgb(33.96759%, 74.052429%, 35.029602%)" offset="0.640625"/><stop stop-opacity="1" stop-color="rgb(33.372498%, 73.860168%, 35.301208%)" offset="0.644531"/><stop stop-opacity="1" stop-color="rgb(32.777405%, 73.667908%, 35.574341%)" offset="0.648438"/><stop stop-opacity="1" stop-color="rgb(32.182312%, 73.475647%, 35.847473%)" offset="0.652344"/><stop stop-opacity="1" stop-color="rgb(31.587219%, 73.284912%, 36.120605%)" offset="0.65625"/><stop stop-opacity="1" stop-color="rgb(30.992126%, 73.092651%, 36.392212%)" offset="0.660156"/><stop stop-opacity="1" stop-color="rgb(30.397034%, 72.900391%, 36.665344%)" offset="0.664062"/><stop stop-opacity="1" stop-color="rgb(29.801941%, 72.70813%, 36.938477%)" offset="0.667969"/><stop stop-opacity="1" stop-color="rgb(29.206848%, 72.517395%, 37.211609%)" offset="0.671875"/><stop stop-opacity="1" stop-color="rgb(28.611755%, 72.325134%, 37.483215%)" offset="0.675781"/><stop stop-opacity="1" stop-color="rgb(28.016663%, 72.132874%, 37.756348%)" offset="0.679688"/><stop stop-opacity="1" stop-color="rgb(27.42157%, 71.940613%, 38.02948%)" offset="0.683594"/><stop stop-opacity="1" stop-color="rgb(26.826477%, 71.749878%, 38.302612%)" offset="0.6875"/><stop stop-opacity="1" stop-color="rgb(26.231384%, 71.557617%, 38.574219%)" offset="0.691406"/><stop stop-opacity="1" stop-color="rgb(25.636292%, 71.365356%, 38.847351%)" offset="0.695312"/><stop stop-opacity="1" stop-color="rgb(25.041199%, 71.173096%, 39.120483%)" offset="0.699219"/><stop stop-opacity="1" stop-color="rgb(24.447632%, 70.982361%, 39.393616%)" offset="0.703125"/><stop stop-opacity="1" stop-color="rgb(23.852539%, 70.7901%, 39.665222%)" offset="0.707031"/><stop stop-opacity="1" stop-color="rgb(23.257446%, 70.597839%, 39.938354%)" offset="0.710938"/><stop stop-opacity="1" stop-color="rgb(22.662354%, 70.405579%, 40.211487%)" offset="0.714844"/><stop stop-opacity="1" stop-color="rgb(22.067261%, 70.214844%, 40.484619%)" offset="0.71875"/><stop stop-opacity="1" stop-color="rgb(21.472168%, 70.022583%, 40.756226%)" offset="0.722656"/><stop stop-opacity="1" stop-color="rgb(20.877075%, 69.831848%, 41.029358%)" offset="0.726562"/><stop stop-opacity="1" stop-color="rgb(20.281982%, 69.639587%, 41.300964%)" offset="0.730469"/><stop stop-opacity="1" stop-color="rgb(19.68689%, 69.447327%, 41.574097%)" offset="0.734375"/><stop stop-opacity="1" stop-color="rgb(19.091797%, 69.255066%, 41.847229%)" offset="0.738281"/><stop stop-opacity="1" stop-color="rgb(18.496704%, 69.064331%, 42.120361%)" offset="0.742187"/><stop stop-opacity="1" stop-color="rgb(17.901611%, 68.87207%, 42.391968%)" offset="0.746094"/><stop stop-opacity="1" stop-color="rgb(17.306519%, 68.67981%, 42.6651%)" offset="0.75"/><stop stop-opacity="1" stop-color="rgb(16.711426%, 68.487549%, 42.938232%)" offset="0.753906"/><stop stop-opacity="1" stop-color="rgb(16.117859%, 68.296814%, 43.211365%)" offset="0.757812"/><stop stop-opacity="1" stop-color="rgb(15.522766%, 68.104553%, 43.482971%)" offset="0.761719"/><stop stop-opacity="1" stop-color="rgb(14.927673%, 67.912292%, 43.756104%)" offset="0.765625"/><stop stop-opacity="1" stop-color="rgb(14.332581%, 67.720032%, 44.029236%)" offset="0.769531"/><stop stop-opacity="1" stop-color="rgb(13.737488%, 67.529297%, 44.302368%)" offset="0.773437"/><stop stop-opacity="1" stop-color="rgb(13.142395%, 67.337036%, 44.573975%)" offset="0.777344"/><stop stop-opacity="1" stop-color="rgb(12.547302%, 67.144775%, 44.847107%)" offset="0.78125"/><stop stop-opacity="1" stop-color="rgb(11.952209%, 66.952515%, 45.120239%)" offset="0.785156"/><stop stop-opacity="1" stop-color="rgb(11.357117%, 66.76178%, 45.393372%)" offset="0.789062"/><stop stop-opacity="1" stop-color="rgb(10.762024%, 66.569519%, 45.664978%)" offset="0.792969"/><stop stop-opacity="1" stop-color="rgb(10.166931%, 66.377258%, 45.93811%)" offset="0.796875"/><stop stop-opacity="1" stop-color="rgb(9.571838%, 66.184998%, 46.211243%)" offset="0.800781"/><stop stop-opacity="1" stop-color="rgb(8.976746%, 65.994263%, 46.484375%)" offset="0.804688"/><stop stop-opacity="1" stop-color="rgb(8.381653%, 65.802002%, 46.755981%)" offset="0.808594"/><stop stop-opacity="1" stop-color="rgb(7.78656%, 65.609741%, 47.029114%)" offset="0.8125"/><stop stop-opacity="1" stop-color="rgb(7.191467%, 65.41748%, 47.302246%)" offset="0.816406"/><stop stop-opacity="1" stop-color="rgb(6.5979%, 65.226746%, 47.575378%)" offset="0.820312"/><stop stop-opacity="1" stop-color="rgb(6.002808%, 65.034485%, 47.846985%)" offset="0.824219"/><stop stop-opacity="1" stop-color="rgb(5.407715%, 64.84375%, 48.120117%)" offset="0.828125"/><stop stop-opacity="1" stop-color="rgb(4.812622%, 64.651489%, 48.39325%)" offset="0.832031"/><stop stop-opacity="1" stop-color="rgb(4.217529%, 64.459229%, 48.666382%)" offset="0.835937"/><stop stop-opacity="1" stop-color="rgb(3.622437%, 64.266968%, 48.937988%)" offset="0.839844"/><stop stop-opacity="1" stop-color="rgb(3.027344%, 64.076233%, 49.211121%)" offset="0.84375"/><stop stop-opacity="1" stop-color="rgb(2.432251%, 63.883972%, 49.484253%)" offset="0.847656"/><stop stop-opacity="1" stop-color="rgb(1.837158%, 63.691711%, 49.757385%)" offset="0.851562"/><stop stop-opacity="1" stop-color="rgb(1.242065%, 63.499451%, 50.028992%)" offset="0.855469"/><stop stop-opacity="1" stop-color="rgb(0.646973%, 63.308716%, 50.302124%)" offset="0.859375"/><stop stop-opacity="1" stop-color="rgb(0.323486%, 63.20343%, 50.450134%)" offset="0.863281"/><stop stop-opacity="1" stop-color="rgb(0%, 63.09967%, 50.59967%)" offset="0.867187"/><stop stop-opacity="1" stop-color="rgb(0%, 63.09967%, 50.59967%)" offset="0.875"/><stop stop-opacity="1" stop-color="rgb(0%, 63.09967%, 50.59967%)" offset="1"/></linearGradient></defs><g clip-path="url(#ef2fb248b2)"><g clip-path="url(#ae32434d6d)"><path fill="url(#6403c64332)" d="M 119.308594 114.390625 L 119.308594 214.773438 L 255.808594 214.773438 L 255.808594 114.390625 Z M 119.308594 114.390625 " fill-rule="nonzero"/></g></g><g fill="#d9d9d9" fill-opacity="1"><g transform="translate(129.176141, 239.178452)"><g><path d="M 10.640625 -16.015625 L 10.640625 -12.890625 L 7.5625 -12.890625 L 7.5625 0 L 3.1875 0 L 3.1875 -12.890625 L 0.125 -12.890625 L 0.125 -16.015625 Z M 10.640625 -16.015625 "/></g></g></g><g fill="#d9d9d9" fill-opacity="1"><g transform="translate(143.289079, 239.178452)"><g><path d="M 5.359375 -3.109375 L 10.828125 -3.109375 L 10.828125 0 L 1 0 L 1 -16.015625 L 10.59375 -16.015625 L 10.59375 -12.890625 L 5.359375 -12.890625 L 5.359375 -9.625 L 9.875 -9.625 L 9.875 -6.515625 L 5.359375 -6.515625 Z M 5.359375 -3.109375 "/></g></g></g><g fill="#d9d9d9" fill-opacity="1"><g transform="translate(157.825894, 239.178452)"><g><path d="M 11.71875 -10.03125 L 7.359375 -10.03125 L 7.359375 -12.59375 C 7.359375 -12.957031 7.148438 -13.140625 6.734375 -13.140625 L 5.859375 -13.140625 C 5.441406 -13.140625 5.234375 -12.957031 5.234375 -12.59375 L 5.234375 -3.421875 C 5.234375 -3.054688 5.441406 -2.875 5.859375 -2.875 L 6.734375 -2.875 C 7.148438 -2.875 7.359375 -3.054688 7.359375 -3.421875 L 7.359375 -5.890625 L 11.71875 -5.890625 L 11.71875 -3.09375 C 11.71875 -1.03125 10.5 0 8.0625 0 L 4.53125 0 C 2.09375 0 0.875 -1.03125 0.875 -3.09375 L 0.875 -12.921875 C 0.875 -14.984375 2.09375 -16.015625 4.53125 -16.015625 L 8.0625 -16.015625 C 10.5 -16.015625 11.71875 -14.984375 11.71875 -12.921875 Z M 11.71875 -10.03125 "/></g></g></g><g fill="#d9d9d9" fill-opacity="1"><g transform="translate(173.509679, 239.178452)"><g><path d="M 8.421875 -16.015625 L 12.71875 -16.015625 L 12.71875 0 L 8.421875 0 L 8.421875 -6.328125 L 5.28125 -6.328125 L 5.28125 0 L 1 0 L 1 -16.015625 L 5.28125 -16.015625 L 5.28125 -9.453125 L 8.421875 -9.453125 Z M 8.421875 -16.015625 "/></g></g></g><g fill="#d9d9d9" fill-opacity="1"><g transform="translate(190.564835, 239.178452)"><g><path d="M 7.703125 -10 L 7.703125 -12.59375 C 7.703125 -12.957031 7.492188 -13.140625 7.078125 -13.140625 L 5.28125 -13.140625 L 5.28125 -9.453125 L 7.078125 -9.453125 C 7.492188 -9.453125 7.703125 -9.632812 7.703125 -10 Z M 7.703125 -3.421875 L 7.703125 -6.03125 C 7.703125 -6.394531 7.492188 -6.578125 7.078125 -6.578125 L 5.28125 -6.578125 L 5.28125 -2.875 L 7.078125 -2.875 C 7.492188 -2.875 7.703125 -3.054688 7.703125 -3.421875 Z M 1 -16.015625 L 8.328125 -16.015625 C 10.773438 -16.015625 12 -14.984375 12 -12.921875 L 12 -10.875 C 12 -9.425781 11.597656 -8.488281 10.796875 -8.0625 C 11.265625 -7.851562 11.582031 -7.546875 11.75 -7.140625 C 11.914062 -6.734375 12 -6.179688 12 -5.484375 L 12 -3.09375 C 12 -1.03125 10.773438 0 8.328125 0 L 1 0 Z M 1 -16.015625 "/></g></g></g><g fill="#d9d9d9" fill-opacity="1"><g transform="translate(206.772228, 239.178452)"><g><path d="M 1 -16.015625 L 5.359375 -16.015625 L 5.359375 0 L 1 0 Z M 1 -16.015625 "/></g></g></g><g fill="#d9d9d9" fill-opacity="1"><g transform="translate(216.471839, 239.178452)"><g><path d="M 5.359375 -5.6875 L 5.359375 0 L 1 0 L 1 -16.015625 L 8.40625 -16.015625 C 10.84375 -16.015625 12.0625 -14.984375 12.0625 -12.921875 L 12.0625 -8.78125 C 12.0625 -7.195312 11.347656 -6.222656 9.921875 -5.859375 L 12.875 0 L 8.171875 0 L 5.640625 -5.6875 Z M 7.078125 -12.890625 L 5.359375 -12.890625 L 5.359375 -8.65625 L 7.078125 -8.65625 C 7.492188 -8.65625 7.703125 -8.835938 7.703125 -9.203125 L 7.703125 -12.34375 C 7.703125 -12.707031 7.492188 -12.890625 7.078125 -12.890625 Z M 7.078125 -12.890625 "/></g></g></g><g fill="#d9d9d9" fill-opacity="1"><g transform="translate(232.629368, 239.178452)"><g><path d="M 1.25 -16.015625 L 8.609375 -16.015625 C 11.046875 -16.015625 12.265625 -14.984375 12.265625 -12.921875 L 12.265625 -3.09375 C 12.265625 -1.03125 11.046875 0 8.609375 0 L 1.25 0 Z M 7.90625 -3.421875 L 7.90625 -12.59375 C 7.90625 -12.957031 7.695312 -13.140625 7.28125 -13.140625 L 5.609375 -13.140625 L 5.609375 -2.875 L 7.28125 -2.875 C 7.695312 -2.875 7.90625 -3.054688 7.90625 -3.421875 Z M 7.90625 -3.421875 "/></g></g></g><g fill="#d9d9d9" fill-opacity="1"><g transform="translate(128.647526, 261.624286)"><g/></g></g><g fill="#d9d9d9" fill-opacity="1"><g transform="translate(133.987889, 261.624286)"><g><path d="M 3.125 -4 L 0.109375 -8.546875 L 1.609375 -8.546875 L 3.75 -5.34375 L 5.890625 -8.546875 L 7.40625 -8.546875 L 4.390625 -4 L 4.390625 0 L 3.125 0 Z M 3.125 -4 "/></g></g></g><g fill="#d9d9d9" fill-opacity="1"><g transform="translate(143.746347, 261.624286)"><g><path d="M 3.203125 0.140625 C 2.804688 0.140625 2.429688 0.0625 2.078125 -0.09375 C 1.734375 -0.25 1.425781 -0.460938 1.15625 -0.734375 C 0.894531 -1.003906 0.6875 -1.320312 0.53125 -1.6875 C 0.382812 -2.0625 0.3125 -2.460938 0.3125 -2.890625 C 0.3125 -3.304688 0.382812 -3.695312 0.53125 -4.0625 C 0.6875 -4.4375 0.894531 -4.757812 1.15625 -5.03125 C 1.425781 -5.300781 1.734375 -5.515625 2.078125 -5.671875 C 2.429688 -5.828125 2.804688 -5.90625 3.203125 -5.90625 C 3.597656 -5.90625 3.972656 -5.828125 4.328125 -5.671875 C 4.679688 -5.515625 4.988281 -5.300781 5.25 -5.03125 C 5.507812 -4.757812 5.71875 -4.4375 5.875 -4.0625 C 6.03125 -3.695312 6.109375 -3.304688 6.109375 -2.890625 C 6.109375 -2.460938 6.03125 -2.0625 5.875 -1.6875 C 5.71875 -1.320312 5.507812 -1.003906 5.25 -0.734375 C 4.988281 -0.460938 4.679688 -0.25 4.328125 -0.09375 C 3.972656 0.0625 3.597656 0.140625 3.203125 0.140625 Z M 3.203125 -4.859375 C 2.972656 -4.859375 2.753906 -4.804688 2.546875 -4.703125 C 2.335938 -4.597656 2.15625 -4.457031 2 -4.28125 C 1.84375 -4.101562 1.71875 -3.894531 1.625 -3.65625 C 1.539062 -3.414062 1.5 -3.160156 1.5 -2.890625 C 1.5 -2.609375 1.539062 -2.347656 1.625 -2.109375 C 1.71875 -1.867188 1.84375 -1.65625 2 -1.46875 C 2.15625 -1.289062 2.335938 -1.148438 2.546875 -1.046875 C 2.753906 -0.941406 2.972656 -0.890625 3.203125 -0.890625 C 3.441406 -0.890625 3.664062 -0.941406 3.875 -1.046875 C 4.082031 -1.148438 4.257812 -1.289062 4.40625 -1.46875 C 4.5625 -1.65625 4.679688 -1.867188 4.765625 -2.109375 C 4.859375 -2.347656 4.90625 -2.609375 4.90625 -2.890625 C 4.90625 -3.160156 4.859375 -3.414062 4.765625 -3.65625 C 4.679688 -3.894531 4.5625 -4.101562 4.40625 -4.28125 C 4.257812 -4.457031 4.082031 -4.597656 3.875 -4.703125 C 3.664062 -4.804688 3.441406 -4.859375 3.203125 -4.859375 Z M 3.203125 -4.859375 "/></g></g></g><g fill="#d9d9d9" fill-opacity="1"><g transform="translate(152.310719, 261.624286)"><g><path d="M 4.578125 -0.515625 C 4.378906 -0.328125 4.144531 -0.171875 3.875 -0.046875 C 3.601562 0.0664062 3.304688 0.125 2.984375 0.125 C 2.773438 0.125 2.535156 0.09375 2.265625 0.03125 C 2.003906 -0.03125 1.757812 -0.148438 1.53125 -0.328125 C 1.300781 -0.503906 1.109375 -0.742188 0.953125 -1.046875 C 0.796875 -1.359375 0.71875 -1.765625 0.71875 -2.265625 L 0.71875 -5.78125 L 1.828125 -5.78125 L 1.828125 -2.265625 C 1.828125 -2.015625 1.863281 -1.800781 1.9375 -1.625 C 2.007812 -1.457031 2.109375 -1.320312 2.234375 -1.21875 C 2.359375 -1.113281 2.5 -1.035156 2.65625 -0.984375 C 2.820312 -0.941406 2.988281 -0.921875 3.15625 -0.921875 C 3.289062 -0.921875 3.4375 -0.941406 3.59375 -0.984375 C 3.757812 -1.035156 3.914062 -1.113281 4.0625 -1.21875 C 4.207031 -1.332031 4.328125 -1.472656 4.421875 -1.640625 C 4.523438 -1.804688 4.578125 -2.007812 4.578125 -2.25 L 4.578125 -5.78125 L 5.75 -5.78125 L 5.75 0 L 4.828125 0 Z M 4.578125 -0.515625 "/></g></g></g><g fill="#d9d9d9" fill-opacity="1"><g transform="translate(160.959519, 261.624286)"><g/></g></g><g fill="#d9d9d9" fill-opacity="1"><g transform="translate(166.303477, 261.624286)"><g><path d="M 0.71875 0 L 0.71875 -8.546875 L 3.765625 -8.546875 C 4.378906 -8.546875 4.921875 -8.429688 5.390625 -8.203125 C 5.867188 -7.984375 6.265625 -7.679688 6.578125 -7.296875 C 6.898438 -6.910156 7.144531 -6.457031 7.3125 -5.9375 C 7.476562 -5.414062 7.5625 -4.859375 7.5625 -4.265625 C 7.5625 -3.671875 7.472656 -3.113281 7.296875 -2.59375 C 7.128906 -2.082031 6.890625 -1.628906 6.578125 -1.234375 C 6.273438 -0.847656 5.914062 -0.546875 5.5 -0.328125 C 5.082031 -0.109375 4.632812 0 4.15625 0 Z M 3.71875 -1.171875 C 4.175781 -1.171875 4.566406 -1.253906 4.890625 -1.421875 C 5.210938 -1.585938 5.476562 -1.8125 5.6875 -2.09375 C 5.894531 -2.375 6.046875 -2.703125 6.140625 -3.078125 C 6.234375 -3.460938 6.28125 -3.859375 6.28125 -4.265625 C 6.28125 -4.679688 6.234375 -5.078125 6.140625 -5.453125 C 6.046875 -5.835938 5.894531 -6.175781 5.6875 -6.46875 C 5.476562 -6.757812 5.210938 -6.988281 4.890625 -7.15625 C 4.566406 -7.332031 4.175781 -7.421875 3.71875 -7.421875 L 1.984375 -7.421875 L 1.984375 -1.171875 Z M 3.71875 -1.171875 "/></g></g></g><g fill="#d9d9d9" fill-opacity="1"><g transform="translate(176.677064, 261.624286)"><g><path d="M 5.90625 -8.546875 L 5.90625 -7.421875 L 1.9375 -7.421875 L 1.9375 -5.09375 L 5.46875 -5.09375 L 5.46875 -3.921875 L 1.9375 -3.921875 L 1.9375 -1.171875 L 5.90625 -1.171875 L 5.90625 0 L 0.671875 0 L 0.671875 -8.546875 Z M 5.90625 -8.546875 "/></g></g></g><g fill="#d9d9d9" fill-opacity="1"><g transform="translate(185.494726, 261.624286)"><g><path d="M 3.71875 0 L 0.171875 -8.546875 L 1.53125 -8.546875 L 4.421875 -1.609375 L 7.296875 -8.546875 L 8.65625 -8.546875 L 5.109375 0 Z M 3.71875 0 "/></g></g></g><g fill="#d9d9d9" fill-opacity="1"><g transform="translate(196.519638, 261.624286)"><g><path d="M 5.90625 -8.546875 L 5.90625 -7.421875 L 1.9375 -7.421875 L 1.9375 -5.09375 L 5.46875 -5.09375 L 5.46875 -3.921875 L 1.9375 -3.921875 L 1.9375 -1.171875 L 5.90625 -1.171875 L 5.90625 0 L 0.671875 0 L 0.671875 -8.546875 Z M 5.90625 -8.546875 "/></g></g></g><g fill="#d9d9d9" fill-opacity="1"><g transform="translate(205.337296, 261.624286)"><g><path d="M 0.71875 0 L 0.71875 -8.546875 L 1.984375 -8.546875 L 1.984375 -1.171875 L 5.9375 -1.171875 L 5.9375 0 Z M 0.71875 0 "/></g></g></g><g fill="#d9d9d9" fill-opacity="1"><g transform="translate(213.72074, 261.624286)"><g><path d="M 4.640625 -8.671875 C 5.222656 -8.671875 5.769531 -8.550781 6.28125 -8.3125 C 6.800781 -8.082031 7.25 -7.769531 7.625 -7.375 C 8.007812 -6.976562 8.3125 -6.507812 8.53125 -5.96875 C 8.757812 -5.4375 8.875 -4.875 8.875 -4.28125 C 8.875 -3.675781 8.757812 -3.109375 8.53125 -2.578125 C 8.3125 -2.046875 8.007812 -1.582031 7.625 -1.1875 C 7.238281 -0.789062 6.785156 -0.472656 6.265625 -0.234375 C 5.753906 -0.00390625 5.207031 0.109375 4.625 0.109375 C 4.050781 0.109375 3.503906 -0.00390625 2.984375 -0.234375 C 2.472656 -0.472656 2.023438 -0.789062 1.640625 -1.1875 C 1.265625 -1.582031 0.960938 -2.046875 0.734375 -2.578125 C 0.515625 -3.109375 0.40625 -3.675781 0.40625 -4.28125 C 0.40625 -4.875 0.515625 -5.4375 0.734375 -5.96875 C 0.960938 -6.507812 1.269531 -6.976562 1.65625 -7.375 C 2.039062 -7.769531 2.488281 -8.082031 3 -8.3125 C 3.519531 -8.550781 4.066406 -8.671875 4.640625 -8.671875 Z M 4.640625 -1.078125 C 5.054688 -1.078125 5.441406 -1.160156 5.796875 -1.328125 C 6.148438 -1.492188 6.457031 -1.722656 6.71875 -2.015625 C 6.988281 -2.304688 7.203125 -2.644531 7.359375 -3.03125 C 7.515625 -3.425781 7.59375 -3.84375 7.59375 -4.28125 C 7.59375 -4.726562 7.515625 -5.144531 7.359375 -5.53125 C 7.203125 -5.914062 6.988281 -6.25 6.71875 -6.53125 C 6.457031 -6.820312 6.148438 -7.050781 5.796875 -7.21875 C 5.441406 -7.382812 5.054688 -7.46875 4.640625 -7.46875 C 4.234375 -7.46875 3.847656 -7.382812 3.484375 -7.21875 C 3.128906 -7.050781 2.816406 -6.820312 2.546875 -6.53125 C 2.285156 -6.25 2.078125 -5.914062 1.921875 -5.53125 C 1.765625 -5.144531 1.6875 -4.726562 1.6875 -4.28125 C 1.6875 -3.84375 1.765625 -3.425781 1.921875 -3.03125 C 2.078125 -2.644531 2.285156 -2.304688 2.546875 -2.015625 C 2.816406 -1.722656 3.128906 -1.492188 3.484375 -1.328125 C 3.847656 -1.160156 4.234375 -1.078125 4.640625 -1.078125 Z M 4.640625 -1.078125 "/></g></g></g><g fill="#d9d9d9" fill-opacity="1"><g transform="translate(225.167804, 261.624286)"><g><path d="M 4.125 -8.546875 C 4.457031 -8.546875 4.773438 -8.484375 5.078125 -8.359375 C 5.378906 -8.234375 5.640625 -8.0625 5.859375 -7.84375 C 6.078125 -7.625 6.25 -7.367188 6.375 -7.078125 C 6.507812 -6.785156 6.578125 -6.46875 6.578125 -6.125 C 6.578125 -5.789062 6.507812 -5.472656 6.375 -5.171875 C 6.25 -4.878906 6.078125 -4.625 5.859375 -4.40625 C 5.640625 -4.1875 5.378906 -4.015625 5.078125 -3.890625 C 4.773438 -3.765625 4.457031 -3.703125 4.125 -3.703125 L 1.90625 -3.6875 L 1.90625 0 L 0.65625 0 L 0.65625 -8.546875 Z M 4.125 -4.875 C 4.289062 -4.875 4.445312 -4.90625 4.59375 -4.96875 C 4.75 -5.039062 4.878906 -5.132812 4.984375 -5.25 C 5.097656 -5.363281 5.1875 -5.5 5.25 -5.65625 C 5.320312 -5.8125 5.359375 -5.976562 5.359375 -6.15625 C 5.359375 -6.332031 5.320312 -6.492188 5.25 -6.640625 C 5.1875 -6.796875 5.097656 -6.929688 4.984375 -7.046875 C 4.878906 -7.160156 4.75 -7.253906 4.59375 -7.328125 C 4.445312 -7.398438 4.289062 -7.4375 4.125 -7.4375 L 1.90625 -7.4375 L 1.90625 -4.875 Z M 4.125 -4.875 "/></g></g></g><g fill="#d9d9d9" fill-opacity="1"><g transform="translate(234.383491, 261.624286)"><g><path d="M 5.90625 -8.546875 L 5.90625 -7.421875 L 1.9375 -7.421875 L 1.9375 -5.09375 L 5.46875 -5.09375 L 5.46875 -3.921875 L 1.9375 -3.921875 L 1.9375 -1.171875 L 5.90625 -1.171875 L 5.90625 0 L 0.671875 0 L 0.671875 -8.546875 Z M 5.90625 -8.546875 "/></g></g></g><g fill="#d9d9d9" fill-opacity="1"><g transform="translate(243.200486, 261.624286)"><g/></g></g><g fill="#d9d9d9" fill-opacity="1"><g transform="translate(144.347325, 278.296639)"><g><path d="M 9.9375 -8.546875 L 11.34375 -8.546875 L 8.78125 0 L 7.546875 0 L 5.953125 -5.3125 L 5.75 -6.28125 L 5.53125 -5.265625 L 3.953125 0 L 2.71875 0 L 0.140625 -8.546875 L 1.53125 -8.546875 L 3.296875 -2.03125 L 5.28125 -8.546875 L 6.234375 -8.546875 L 8.203125 -2.09375 Z M 9.9375 -8.546875 "/></g></g></g><g fill="#d9d9d9" fill-opacity="1"><g transform="translate(158.086064, 278.296639)"><g><path d="M 3.40625 0.140625 C 2.988281 0.140625 2.597656 0.0625 2.234375 -0.09375 C 1.867188 -0.25 1.550781 -0.460938 1.28125 -0.734375 C 1.007812 -1.003906 0.789062 -1.320312 0.625 -1.6875 C 0.46875 -2.0625 0.390625 -2.460938 0.390625 -2.890625 C 0.390625 -3.304688 0.460938 -3.695312 0.609375 -4.0625 C 0.765625 -4.4375 0.96875 -4.757812 1.21875 -5.03125 C 1.476562 -5.300781 1.773438 -5.515625 2.109375 -5.671875 C 2.453125 -5.828125 2.816406 -5.90625 3.203125 -5.90625 C 3.585938 -5.90625 3.945312 -5.835938 4.28125 -5.703125 C 4.613281 -5.566406 4.90625 -5.351562 5.15625 -5.0625 C 5.40625 -4.769531 5.597656 -4.398438 5.734375 -3.953125 C 5.867188 -3.515625 5.9375 -2.984375 5.9375 -2.359375 L 1.640625 -2.359375 C 1.691406 -2.148438 1.78125 -1.957031 1.90625 -1.78125 C 2.03125 -1.601562 2.171875 -1.445312 2.328125 -1.3125 C 2.492188 -1.175781 2.679688 -1.070312 2.890625 -1 C 3.097656 -0.925781 3.3125 -0.890625 3.53125 -0.890625 C 3.84375 -0.890625 4.128906 -0.945312 4.390625 -1.0625 C 4.648438 -1.175781 4.867188 -1.328125 5.046875 -1.515625 L 5.78125 -0.78125 C 5.5 -0.5 5.15625 -0.273438 4.75 -0.109375 C 4.34375 0.0546875 3.894531 0.140625 3.40625 0.140625 Z M 3.203125 -4.84375 C 3.015625 -4.84375 2.835938 -4.804688 2.671875 -4.734375 C 2.503906 -4.660156 2.347656 -4.5625 2.203125 -4.4375 C 2.066406 -4.3125 1.945312 -4.160156 1.84375 -3.984375 C 1.75 -3.804688 1.675781 -3.613281 1.625 -3.40625 L 4.6875 -3.40625 C 4.664062 -3.59375 4.617188 -3.773438 4.546875 -3.953125 C 4.472656 -4.128906 4.367188 -4.285156 4.234375 -4.421875 C 4.109375 -4.554688 3.957031 -4.660156 3.78125 -4.734375 C 3.613281 -4.804688 3.421875 -4.84375 3.203125 -4.84375 Z M 3.203125 -4.84375 "/></g></g></g><g fill="#d9d9d9" fill-opacity="1"><g transform="translate(166.674553, 278.296639)"><g/></g></g><g fill="#d9d9d9" fill-opacity="1"><g transform="translate(172.018512, 278.296639)"><g><path d="M 5.90625 -8.546875 L 5.90625 -7.421875 L 1.9375 -7.421875 L 1.9375 -5.09375 L 5.46875 -5.09375 L 5.46875 -3.921875 L 1.9375 -3.921875 L 1.9375 -1.171875 L 5.90625 -1.171875 L 5.90625 0 L 0.671875 0 L 0.671875 -8.546875 Z M 5.90625 -8.546875 "/></g></g></g><g fill="#d9d9d9" fill-opacity="1"><g transform="translate(180.836172, 278.296639)"><g><path d="M 4.859375 -4.59375 L 7.90625 0 L 6.40625 0 L 4.109375 -3.453125 L 1.8125 0 L 0.296875 0 L 3.359375 -4.59375 L 0.71875 -8.546875 L 2.234375 -8.546875 L 4.109375 -5.734375 L 5.984375 -8.546875 L 7.484375 -8.546875 Z M 4.859375 -4.59375 "/></g></g></g><g fill="#d9d9d9" fill-opacity="1"><g transform="translate(191.282129, 278.296639)"><g><path d="M 4.125 -8.546875 C 4.457031 -8.546875 4.773438 -8.484375 5.078125 -8.359375 C 5.378906 -8.234375 5.640625 -8.0625 5.859375 -7.84375 C 6.078125 -7.625 6.25 -7.367188 6.375 -7.078125 C 6.507812 -6.785156 6.578125 -6.46875 6.578125 -6.125 C 6.578125 -5.789062 6.507812 -5.472656 6.375 -5.171875 C 6.25 -4.878906 6.078125 -4.625 5.859375 -4.40625 C 5.640625 -4.1875 5.378906 -4.015625 5.078125 -3.890625 C 4.773438 -3.765625 4.457031 -3.703125 4.125 -3.703125 L 1.90625 -3.6875 L 1.90625 0 L 0.65625 0 L 0.65625 -8.546875 Z M 4.125 -4.875 C 4.289062 -4.875 4.445312 -4.90625 4.59375 -4.96875 C 4.75 -5.039062 4.878906 -5.132812 4.984375 -5.25 C 5.097656 -5.363281 5.1875 -5.5 5.25 -5.65625 C 5.320312 -5.8125 5.359375 -5.976562 5.359375 -6.15625 C 5.359375 -6.332031 5.320312 -6.492188 5.25 -6.640625 C 5.1875 -6.796875 5.097656 -6.929688 4.984375 -7.046875 C 4.878906 -7.160156 4.75 -7.253906 4.59375 -7.328125 C 4.445312 -7.398438 4.289062 -7.4375 4.125 -7.4375 L 1.90625 -7.4375 L 1.90625 -4.875 Z M 4.125 -4.875 "/></g></g></g><g fill="#d9d9d9" fill-opacity="1"><g transform="translate(200.497816, 278.296639)"><g><path d="M 1.515625 0 L 0.125 0 L 3.6875 -8.546875 L 5.078125 -8.546875 L 8.640625 0 L 7.28125 0 L 6.15625 -2.671875 L 2.625 -2.671875 Z M 3.09375 -3.828125 L 5.671875 -3.828125 L 4.390625 -6.921875 Z M 3.09375 -3.828125 "/></g></g></g><g fill="#d9d9d9" fill-opacity="1"><g transform="translate(211.522729, 278.296639)"><g><path d="M 8.046875 -8.546875 L 8.046875 0 L 6.765625 0 L 1.984375 -6.5625 L 1.984375 0 L 0.671875 0 L 0.671875 -8.546875 L 2 -8.546875 L 6.78125 -1.953125 L 6.78125 -8.546875 Z M 8.046875 -8.546875 "/></g></g></g><g fill="#d9d9d9" fill-opacity="1"><g transform="translate(222.463201, 278.296639)"><g><path d="M 0.71875 0 L 0.71875 -8.546875 L 3.765625 -8.546875 C 4.378906 -8.546875 4.921875 -8.429688 5.390625 -8.203125 C 5.867188 -7.984375 6.265625 -7.679688 6.578125 -7.296875 C 6.898438 -6.910156 7.144531 -6.457031 7.3125 -5.9375 C 7.476562 -5.414062 7.5625 -4.859375 7.5625 -4.265625 C 7.5625 -3.671875 7.472656 -3.113281 7.296875 -2.59375 C 7.128906 -2.082031 6.890625 -1.628906 6.578125 -1.234375 C 6.273438 -0.847656 5.914062 -0.546875 5.5 -0.328125 C 5.082031 -0.109375 4.632812 0 4.15625 0 Z M 3.71875 -1.171875 C 4.175781 -1.171875 4.566406 -1.253906 4.890625 -1.421875 C 5.210938 -1.585938 5.476562 -1.8125 5.6875 -2.09375 C 5.894531 -2.375 6.046875 -2.703125 6.140625 -3.078125 C 6.234375 -3.460938 6.28125 -3.859375 6.28125 -4.265625 C 6.28125 -4.679688 6.234375 -5.078125 6.140625 -5.453125 C 6.046875 -5.835938 5.894531 -6.175781 5.6875 -6.46875 C 5.476562 -6.757812 5.210938 -6.988281 4.890625 -7.15625 C 4.566406 -7.332031 4.175781 -7.421875 3.71875 -7.421875 L 1.984375 -7.421875 L 1.984375 -1.171875 Z M 3.71875 -1.171875 "/></g></g></g></svg>